<?xml version="1.0" standalone="no"?>
<!DOCTYPE svg PUBLIC "-//W3C//DTD SVG 20010904//EN"
 "http://www.w3.org/TR/2001/REC-SVG-20010904/DTD/svg10.dtd">
<svg version="1.0" xmlns="http://www.w3.org/2000/svg"
 width="1046.000000pt" height="1046.000000pt" viewBox="0 0 1046.000000 1046.000000"
 preserveAspectRatio="xMidYMid meet">
<metadata>
Created by potrace 1.11, written by Peter Selinger 2001-2013
</metadata>
<g transform="translate(0.000000,1046.000000) scale(0.100000,-0.100000)"
fill="#000000" stroke="none">
<path d="M2411 10133 c-1 -13 14 -35 41 -57 41 -35 47 -57 11 -38 -23 13 -48
-9 -30 -27 8 -8 8 -11 -1 -11 -6 0 -9 -7 -6 -15 4 -8 13 -15 21 -15 8 0 12 -4
8 -9 -3 -5 6 -22 21 -38 25 -27 64 -97 64 -116 0 -17 -29 14 -52 54 -12 22
-26 39 -32 39 -5 0 -33 25 -63 56 -59 63 -75 50 -22 -17 28 -36 27 -58 -1 -24
-7 8 -21 15 -31 15 -10 0 -21 5 -24 11 -5 6 -11 4 -19 -6 -11 -15 -13 -14 -30
4 -10 11 -23 18 -27 15 -17 -10 -9 -41 16 -64 28 -27 35 -52 7 -27 -10 10 -24
17 -30 17 -7 0 -12 5 -12 11 0 8 -13 10 -37 6 -21 -4 -32 -3 -25 2 10 6 9 11
-4 22 -16 12 -17 12 -12 -3 4 -10 1 -19 -8 -22 -8 -3 -14 -1 -14 5 0 6 -5 7
-11 3 -8 -4 -8 -9 0 -17 17 -17 13 -26 -9 -24 -11 1 -20 5 -20 10 0 5 -6 7
-12 4 -7 -2 -21 2 -30 11 -22 19 -23 4 -2 -26 11 -16 12 -22 3 -22 -7 0 -1
-13 14 -28 15 -16 24 -31 21 -35 -3 -3 7 -28 24 -56 17 -27 26 -51 21 -53 -6
-2 0 -15 14 -28 37 -39 62 -94 38 -88 -5 2 -10 1 -11 -2 -2 -5 7 -99 16 -162
7 -43 -11 -52 -26 -14 -5 13 -15 28 -22 33 -14 8 -39 62 -58 126 -17 54 -36
88 -44 80 -4 -4 -4 0 0 10 3 10 1 17 -5 17 -7 0 -19 15 -27 33 l-15 32 4 -35
c2 -19 7 -42 11 -51 6 -14 1 -16 -30 -12 -37 4 -37 3 -21 -15 27 -29 21 -49
-6 -24 -31 29 -46 28 -19 -1 18 -19 52 -85 52 -102 0 -3 -7 -5 -15 -5 -8 0
-15 6 -15 14 0 7 -14 31 -31 52 -31 39 -33 34 -11 -25 3 -9 1 -12 -6 -7 -13 8
-9 -8 15 -63 9 -19 18 -52 21 -75 3 -23 12 -52 21 -66 l16 -25 -27 20 c-16 11
-31 30 -34 43 -3 12 -11 26 -18 30 -6 4 -19 23 -28 42 -12 26 -17 30 -18 15
-1 -45 -16 -50 -57 -18 -52 40 -61 45 -73 38 -6 -4 -3 -17 10 -35 23 -32 26
-47 8 -33 -7 5 -32 17 -54 26 -40 15 -44 15 -88 -6 -25 -12 -46 -28 -46 -36 0
-13 -9 -13 -70 4 -15 5 0 -11 40 -41 35 -26 59 -49 52 -52 -9 -3 -10 -7 -2
-17 6 -7 13 -37 16 -66 l5 -54 -33 40 c-47 57 -99 107 -106 101 -3 -3 2 -14
11 -24 10 -10 17 -24 17 -31 0 -7 5 -9 10 -6 6 3 10 -2 10 -12 1 -10 12 -31
25 -47 23 -29 23 -30 6 -55 -10 -14 -26 -46 -35 -71 -10 -25 -20 -51 -23 -57
-3 -7 0 -13 6 -13 6 0 11 7 11 16 0 8 4 12 10 9 9 -6 -5 -42 -21 -55 -4 -3 -9
-12 -12 -20 -2 -8 -3 -1 -1 15 3 28 3 29 -11 11 -8 -11 -15 -32 -15 -48 0 -46
-23 -118 -38 -118 -7 0 -10 5 -7 13 4 6 -6 -4 -21 -23 -16 -19 -29 -37 -30
-40 -2 -16 -39 -80 -47 -80 -5 0 -8 -15 -6 -32 4 -60 1 -70 -21 -63 -17 5 -20
2 -20 -21 0 -23 2 -25 17 -13 15 13 16 11 10 -25 -3 -22 -10 -42 -15 -45 -5
-3 -16 -24 -25 -46 -9 -22 -16 -32 -16 -22 -1 9 -5 17 -10 17 -10 0 -3 -39 11
-57 10 -13 0 -63 -13 -63 -17 0 -96 -56 -124 -89 -66 -74 -106 -111 -120 -111
-21 0 -65 -22 -65 -32 0 -5 10 -6 21 -3 15 5 19 4 15 -4 -4 -6 -15 -11 -24
-11 -10 0 -27 -7 -39 -15 -12 -8 -31 -16 -42 -18 -12 -2 -28 -13 -37 -25 -17
-24 -67 -54 -87 -51 -25 3 -36 -2 -74 -34 -22 -18 -38 -38 -36 -44 3 -7 -5
-20 -16 -30 -12 -9 -21 -24 -21 -33 0 -9 -6 -24 -14 -35 -7 -11 -17 -36 -21
-55 -4 -19 -16 -52 -26 -72 -23 -45 -23 -49 -4 -42 23 9 21 -71 -2 -86 -13 -8
-14 -13 -6 -16 10 -4 10 -11 2 -25 -8 -15 -7 -24 2 -36 7 -8 12 -33 10 -54 -1
-24 2 -39 9 -39 11 0 6 -54 -7 -90 -3 -8 -7 -21 -9 -28 -3 -15 -43 -55 -80
-79 -13 -8 -24 -22 -24 -30 0 -11 6 -10 26 6 15 11 30 18 35 15 5 -3 18 0 30
7 15 8 19 8 15 0 -9 -15 21 -26 37 -14 6 6 19 13 28 16 13 4 16 1 12 -14 -3
-10 -9 -19 -14 -19 -14 0 -10 -20 7 -37 11 -12 14 -27 9 -57 -5 -39 -5 -40 8
-17 14 24 14 23 13 -18 0 -34 -3 -39 -12 -26 -18 25 -21 18 -16 -45 3 -42 0
-65 -9 -77 -12 -15 -12 -16 4 -10 17 6 18 2 14 -54 -6 -67 10 -78 26 -18 8 30
10 32 17 13 5 -11 7 -46 5 -77 -2 -31 1 -57 6 -57 5 0 6 -23 3 -55 -5 -44 -3
-59 10 -73 9 -10 13 -22 10 -25 -4 -4 -1 -13 6 -22 7 -8 10 -24 7 -34 -3 -12
1 -22 9 -25 8 -3 14 -14 14 -24 0 -11 11 -31 25 -46 23 -25 30 -43 26 -72 -1
-6 6 -24 14 -40 8 -16 15 -39 15 -51 0 -20 89 -126 91 -107 0 5 5 -2 10 -15 6
-15 14 -21 25 -17 8 3 12 2 9 -4 -9 -15 29 -117 43 -112 7 2 12 -5 12 -17 0
-12 4 -21 9 -21 5 0 12 -10 16 -22 19 -72 29 -104 37 -113 4 -5 8 -19 8 -31 0
-13 5 -26 10 -29 6 -3 10 -15 10 -25 0 -10 16 -36 35 -57 20 -21 38 -49 42
-63 6 -26 42 -82 56 -88 4 -2 7 -12 7 -21 0 -10 9 -26 20 -36 11 -10 20 -25
20 -33 0 -7 6 -26 14 -40 23 -46 35 -75 47 -122 7 -28 24 -56 45 -77 26 -24
34 -40 34 -67 0 -19 4 -37 9 -40 5 -4 13 -41 16 -83 29 -307 -15 -714 -107
-978 -25 -74 -66 -157 -81 -167 -14 -8 -19 -5 73 -52 82 -42 232 -139 251
-162 9 -11 9 -18 1 -26 -9 -9 -12 -9 -12 0 0 7 -7 12 -15 12 -8 0 -15 5 -15
10 0 6 -6 10 -14 10 -8 0 -16 5 -18 12 -3 7 -11 9 -24 3 -17 -7 -17 -8 -1 -12
9 -3 17 -9 17 -14 0 -5 6 -9 14 -9 8 0 21 -8 28 -17 18 -24 76 -56 88 -48 6 3
10 1 10 -4 0 -20 -51 -11 -78 14 -15 14 -32 25 -39 25 -7 0 -13 5 -13 10 0 6
-7 10 -15 10 -8 0 -15 4 -15 9 0 5 -11 12 -25 15 -14 4 -25 11 -25 16 0 6 -7
10 -15 10 -8 0 -15 3 -15 8 0 4 -21 19 -48 32 -26 14 -49 27 -52 30 -9 9 -102
51 -106 48 -2 -2 -5 -22 -6 -45 -2 -23 -6 -39 -9 -37 -7 4 -65 -77 -62 -86 1
-3 -10 -7 -23 -8 -14 -1 -58 -16 -98 -32 -87 -36 -157 -99 -177 -158 -14 -41
-30 -58 -370 -407 -59 -60 -164 -165 -232 -232 -68 -67 -132 -133 -141 -147
-15 -23 -16 -132 -16 -1271 l0 -1245 2051 0 2051 0 -6 73 c-4 39 -9 88 -10
107 -2 19 -9 71 -16 115 -7 44 -13 91 -14 105 -3 29 -8 58 -43 230 -14 69 -29
145 -34 169 -5 23 -14 62 -20 84 -6 23 -12 49 -14 58 -27 139 -127 449 -198
615 -41 95 -113 251 -129 279 -49 86 -97 198 -103 240 -8 64 -78 331 -106 410
-12 33 -32 111 -45 174 -36 175 -110 298 -234 391 -33 25 -72 54 -86 66 l-26
20 41 99 c23 55 59 127 81 160 38 58 47 78 105 230 36 94 86 175 155 249 31
33 64 75 72 91 16 30 48 149 48 175 0 8 9 32 20 55 34 71 75 82 329 90 169 5
201 1 201 -24 1 -14 2 -14 11 2 15 26 29 20 29 -13 l0 -31 22 21 c25 23 38 19
14 -5 -9 -9 -16 -28 -15 -43 0 -25 1 -26 9 -6 11 28 30 40 30 20 0 -9 2 -16 5
-16 7 0 53 48 58 62 4 10 6 10 6 1 2 -24 21 -13 21 11 0 14 5 28 10 31 8 5 8
11 1 19 -13 15 -4 26 21 26 16 0 17 3 7 21 -9 17 -7 26 8 48 26 35 45 144 47
270 1 62 2 65 31 77 17 8 47 11 70 8 56 -8 87 17 87 69 0 28 -7 44 -27 62 -14
14 -32 25 -40 25 -16 0 -78 50 -71 58 3 3 13 -1 22 -9 13 -11 17 -11 25 3 5
10 17 14 29 11 31 -8 24 16 -10 35 -35 20 -40 38 -7 27 12 -4 42 -9 67 -10 40
-2 49 2 83 35 31 31 37 45 37 79 0 39 -2 41 -29 41 -16 0 -34 -7 -41 -15 -7
-8 -20 -15 -29 -15 -9 0 -23 -6 -29 -12 -10 -10 -15 -10 -21 1 -5 7 -14 11
-19 7 -13 -8 -52 14 -52 28 0 6 5 5 12 -2 19 -19 37 -14 31 9 -7 24 -32 37
-42 21 -5 -9 -16 -9 -40 1 -28 10 -34 10 -45 -6 -7 -9 -20 -17 -28 -17 -16 0
-38 40 -38 70 0 10 -5 22 -10 25 -6 4 -8 15 -5 26 4 10 3 19 -2 19 -5 0 -8 15
-7 34 1 22 -3 37 -12 40 -8 3 -14 1 -14 -4 0 -6 -7 -10 -15 -10 -20 0 -19 16
1 24 9 4 14 9 11 13 -4 3 -13 0 -22 -7 -20 -16 -26 -10 -27 29 -1 17 -9 38
-19 47 -10 9 -16 21 -13 28 6 16 -32 50 -46 41 -7 -4 -9 1 -5 18 5 20 2 27
-14 32 -18 5 -26 21 -23 46 1 3 -10 4 -24 1 -19 -3 -26 0 -31 16 -6 24 -51 36
-72 19 -12 -10 -13 -8 -9 9 9 34 -5 49 -30 33 -26 -16 -35 -8 -34 31 0 16 -4
30 -9 30 -5 0 -9 -7 -9 -16 0 -14 -3 -14 -15 -4 -10 9 -15 9 -15 1 0 -6 -4
-11 -8 -11 -10 0 -36 51 -33 64 1 5 -4 5 -11 -1 -23 -17 -48 -23 -45 -10 1 7
-6 11 -17 9 -14 -3 -17 1 -12 13 3 9 2 13 -4 10 -6 -3 -10 1 -10 9 0 9 -4 16
-10 16 -5 0 -10 -3 -10 -6 0 -11 23 -49 34 -56 7 -5 6 -8 -4 -7 -20 0 -63 56
-57 73 3 8 -1 17 -9 20 -10 4 -13 13 -8 31 5 19 3 24 -8 20 -8 -3 -21 1 -28 9
-7 9 -16 13 -21 10 -5 -3 -8 0 -7 8 2 7 -3 12 -9 11 -16 -4 -17 19 -1 35 9 9
9 12 0 12 -7 0 -15 -7 -18 -15 -4 -8 -10 -13 -15 -10 -4 3 -6 12 -2 20 3 8 1
15 -5 15 -6 0 -12 -6 -15 -12 -2 -7 -7 -10 -11 -7 -14 13 7 39 33 40 25 0 25
1 4 9 -15 6 -21 15 -17 25 5 11 0 14 -20 13 -14 -1 -28 -8 -30 -14 -6 -16 -91
-12 -92 4 -3 23 -4 24 -19 12 -8 -7 -13 -16 -10 -20 3 -4 -5 -10 -18 -12 -20
-4 -22 0 -22 39 0 24 3 43 8 43 4 0 7 14 7 30 0 20 -5 30 -15 30 -21 0 -19 17
4 23 25 6 39 80 20 103 -11 13 -10 15 7 12 15 -2 18 2 16 22 -1 14 -3 33 -3
42 0 10 -4 20 -10 23 -5 4 3 16 17 29 22 18 25 26 16 42 -6 12 -7 26 -1 36 5
9 7 31 5 49 -5 45 12 89 34 89 13 0 18 7 18 23 -3 52 2 76 15 71 9 -3 14 4 15
23 2 46 7 62 28 79 16 13 16 15 2 10 -25 -7 -22 4 9 39 17 19 28 25 31 17 5
-16 20 -16 19 1 0 6 1 25 1 41 2 25 5 27 27 22 15 -4 25 -2 25 5 0 6 6 9 13 6
6 -2 19 10 27 27 8 17 23 43 33 56 14 21 19 22 27 11 7 -12 10 -9 15 11 4 15
3 32 -1 39 -5 9 -2 10 11 6 14 -6 16 -3 12 12 -3 12 1 22 9 25 22 8 16 23 -11
30 -28 7 -32 27 -10 46 18 15 19 32 3 48 -9 9 -15 7 -25 -6 -12 -15 -13 -12
-7 23 3 22 8 47 10 57 3 9 0 19 -6 23 -5 3 -10 2 -10 -2 0 -5 -9 -9 -20 -9
-24 0 -29 43 -6 52 8 3 14 20 14 40 0 32 -1 34 -17 20 -18 -16 -48 -6 -37 12
3 6 1 14 -5 17 -5 4 -8 14 -5 22 4 9 1 22 -5 29 -6 7 -8 18 -4 25 4 6 1 15 -6
20 -12 8 -12 10 0 18 11 7 6 13 -22 25 -38 15 -45 30 -26 56 9 12 10 11 6 -5
-3 -15 1 -21 14 -22 10 -1 21 2 24 8 3 5 0 6 -7 4 -10 -4 -14 4 -14 28 0 34 0
34 18 13 9 -12 17 -15 18 -8 0 6 7 12 15 12 18 0 20 21 3 39 -11 11 -9 13 10
8 18 -4 22 -2 18 9 -3 9 1 14 14 14 10 0 22 5 26 12 5 8 10 7 18 -4 16 -21 42
-28 55 -15 9 9 14 8 21 -3 5 -8 10 -11 10 -6 0 5 7 3 15 -4 8 -6 20 -8 26 -4
7 4 17 0 25 -10 15 -21 24 -22 35 -4 7 10 12 11 29 1 11 -7 27 -13 36 -13 10
0 14 -6 11 -14 -6 -16 11 -36 30 -36 20 0 16 20 -4 21 -12 0 -13 2 -5 6 7 3
18 1 25 -5 7 -5 29 -13 51 -16 l38 -7 -34 43 c-20 24 -41 53 -47 65 -10 20 -9
22 6 17 38 -13 101 -44 115 -56 7 -7 35 -24 61 -37 32 -16 56 -38 72 -65 14
-23 25 -36 25 -30 0 20 -78 132 -104 150 -14 9 -26 23 -26 32 0 13 2 13 18 0
21 -18 52 -30 52 -20 0 13 -15 28 -35 36 -13 6 -16 10 -7 13 7 3 30 -4 51 -16
22 -11 52 -18 68 -16 15 2 32 4 37 4 5 1 2 9 -5 18 -12 15 -12 16 4 10 10 -4
23 -7 28 -7 6 0 7 -4 4 -10 -3 -5 3 -10 15 -10 14 0 19 4 14 13 -5 8 -2 7 9
-2 15 -11 22 -12 41 -1 13 6 33 9 45 5 12 -4 21 -2 21 4 0 6 7 11 15 11 9 0
18 6 21 13 2 7 13 13 24 14 33 3 90 34 90 50 0 12 -9 9 -35 -11 -19 -15 -35
-22 -35 -17 0 15 -31 14 -55 -2 -45 -29 -115 -40 -165 -27 -14 4 39 19 68 19
21 1 31 5 27 12 -4 6 -13 8 -21 5 -8 -3 -17 0 -20 8 -3 8 -15 11 -30 8 -14 -2
-24 0 -24 7 0 6 5 11 12 11 6 0 20 7 30 16 16 16 18 16 24 0 3 -9 10 -16 16
-16 5 0 6 5 3 10 -10 16 5 50 22 50 8 0 22 9 31 20 10 11 27 22 39 25 25 4 93
55 93 69 0 8 -20 -5 -48 -31 -19 -18 -37 -16 -22 2 10 12 9 15 -6 15 -18 1
-18 1 0 15 13 10 22 11 26 4 4 -6 21 8 40 33 19 24 52 59 74 78 36 32 39 33
33 12 -4 -19 -3 -21 9 -11 16 13 29 60 39 139 4 30 12 61 18 68 14 18 23 162
9 162 -6 0 -17 -28 -24 -62 -8 -34 -19 -63 -26 -66 -16 -5 -15 27 2 97 15 57
15 77 1 169 -10 66 -22 67 -25 2 -3 -97 -5 -110 -13 -110 -5 0 -7 -5 -5 -12 2
-6 -3 -19 -11 -29 -45 -48 -58 -66 -64 -81 -3 -10 -11 -18 -17 -18 -18 0 -1
42 26 67 13 12 19 23 12 25 -7 3 -4 10 6 21 14 13 15 21 6 38 -7 12 -9 37 -6
58 12 76 12 170 -1 281 -7 63 -13 123 -14 132 0 15 -3 15 -20 5 -21 -13 -24
-23 -10 -31 12 -8 24 -111 23 -208 0 -43 4 -78 9 -78 11 0 11 -47 0 -74 -12
-31 -22 -3 -11 33 12 44 -6 39 -20 -6 -15 -46 -62 -133 -72 -133 -4 0 -5 -8
-2 -17 5 -15 4 -16 -5 -3 -6 8 -8 23 -5 32 4 14 1 16 -12 11 -13 -5 -16 -3
-11 10 6 15 -3 22 -25 18 -5 0 -9 5 -10 11 -4 39 -7 73 -12 162 -4 54 -11 117
-16 140 -5 22 -10 73 -11 111 0 39 -3 64 -6 58 -7 -19 -21 -15 -28 8 -4 11 -9
18 -12 15 -8 -8 18 -66 29 -66 7 0 6 -5 -1 -13 -6 -9 -8 -25 -3 -43 10 -36 3
-134 -9 -134 -5 0 -9 8 -9 19 0 10 -7 24 -15 31 -8 7 -15 20 -15 29 0 9 -4 21
-8 26 -4 6 -14 28 -21 50 -23 71 -55 149 -72 175 -9 14 -18 30 -20 35 -2 6
-15 27 -28 48 -16 26 -26 35 -32 26 -4 -7 -4 -19 -1 -28 5 -14 3 -14 -10 -3
-9 7 -19 24 -22 37 -4 14 -11 25 -16 25 -17 0 1 -52 26 -74 26 -25 44 -97 18
-75 -22 18 -80 109 -89 139 -13 44 -77 151 -109 183 -18 18 -45 49 -60 70 -16
20 -37 37 -47 37 -12 0 -19 7 -19 18 0 22 -33 56 -44 45 -3 -4 -13 3 -22 15
-8 12 -20 19 -26 16 -5 -3 -27 10 -47 30 -25 25 -43 35 -54 30 -28 -10 -19
-39 20 -65 33 -22 105 -103 76 -85 -7 4 -13 2 -13 -3 0 -6 6 -11 13 -11 14 0
57 -52 57 -70 0 -16 -50 13 -84 49 -34 36 -52 39 -52 11 0 -11 4 -20 8 -20 4
0 14 -10 22 -23 16 -23 11 -71 -5 -61 -15 9 -10 -23 6 -36 8 -7 15 -9 15 -4 0
17 18 -12 24 -40 6 -23 4 -27 -8 -23 -20 8 -20 6 3 -46 19 -43 26 -127 10
-127 -5 0 -9 3 -10 8 -5 52 -30 115 -41 104 -7 -7 -7 -21 1 -43 6 -17 11 -44
11 -58 0 -20 -12 -5 -46 59 -50 92 -60 107 -51 73 3 -13 1 -23 -4 -23 -5 0 -9
8 -9 18 0 9 -7 26 -15 37 -9 10 -31 70 -50 132 -20 62 -40 113 -45 113 -6 0
-10 11 -10 25 0 14 -9 34 -21 46 -11 11 -19 28 -17 38 2 11 -15 38 -39 64 -63
68 -69 66 -18 -9 34 -49 43 -69 34 -75 -9 -5 -10 -11 -2 -21 43 -54 97 -198
91 -240 -3 -21 -5 -20 -22 12 -11 20 -21 29 -24 22 -2 -7 2 -19 8 -27 8 -10 9
-15 2 -15 -6 0 -43 54 -82 119 -68 115 -83 135 -105 143 -5 1 -9 6 -8 9 4 11
-105 124 -113 116 -4 -4 3 -19 17 -33 16 -19 20 -28 11 -31 -6 -3 -9 -9 -6
-15 4 -6 9 -5 15 3 6 10 11 6 18 -13 5 -14 15 -29 20 -33 6 -3 11 -11 11 -17
0 -7 -4 -7 -14 1 -7 6 -28 17 -47 24 -53 19 -169 90 -169 103 0 6 -8 18 -17
25 -15 13 -16 12 -11 -8 6 -23 -6 -32 -17 -13 -3 6 -11 10 -16 10 -6 0 -7 -4
-4 -10 3 -5 1 -10 -4 -10 -6 0 -11 7 -11 15 0 8 -12 17 -27 21 -45 9 -72 22
-114 56 -49 39 -109 62 -109 42 0 -16 -16 -19 -25 -4 -10 17 -48 12 -41 -5 3
-10 -1 -15 -13 -15 -33 0 -28 -22 13 -62 22 -21 35 -38 30 -38 -6 0 -19 9 -29
20 -10 11 -23 19 -29 17 -6 -2 -38 21 -71 51 -32 30 -74 61 -91 68 -18 7 -34
19 -37 26 -3 7 -6 3 -6 -9z m269 -83 c0 -5 -4 -10 -10 -10 -5 0 -10 5 -10 10
0 6 5 10 10 10 6 0 10 -4 10 -10z m255 -80 c3 -5 1 -10 -4 -10 -6 0 -11 5 -11
10 0 6 2 10 4 10 3 0 8 -4 11 -10z m-605 -64 c0 -2 -7 -6 -15 -10 -8 -3 -15
-1 -15 4 0 6 7 10 15 10 8 0 15 -2 15 -4z m-150 -72 c36 -65 35 -80 -3 -31
-14 19 -24 37 -21 39 2 3 -2 11 -11 18 -17 14 -20 30 -6 30 5 0 23 -25 41 -56z
m-65 6 c3 -5 1 -10 -4 -10 -6 0 -11 5 -11 10 0 6 2 10 4 10 3 0 8 -4 11 -10z
m1178 -85 c51 -64 23 -58 -43 11 -64 65 -64 66 -25 46 22 -11 53 -37 68 -57z
m192 55 c3 -5 1 -10 -4 -10 -6 0 -11 5 -11 10 0 6 2 10 4 10 3 0 8 -4 11 -10z
m-285 -21 c0 -6 -4 -7 -10 -4 -5 3 -10 11 -10 16 0 6 5 7 10 4 6 -3 10 -11 10
-16z m160 -35 c0 -4 -9 1 -20 11 -11 10 -20 25 -20 33 0 9 7 6 20 -11 11 -14
20 -29 20 -33z m-1035 -24 c27 -43 33 -74 13 -68 -15 5 -33 40 -43 81 -10 38
0 34 30 -13z m-125 0 c0 -5 -2 -10 -4 -10 -3 0 -8 5 -11 10 -3 6 -1 10 4 10 6
0 11 -4 11 -10z m40 -74 c0 -6 -7 -2 -15 8 -8 11 -15 25 -15 30 0 6 7 2 15 -8
8 -11 15 -25 15 -30z m1324 -94 c10 -44 17 -85 14 -93 -3 -8 -10 11 -16 41 -6
30 -15 72 -20 93 -6 20 -7 37 -3 37 3 0 15 -35 25 -78z m456 -9 c0 -7 -4 -13
-10 -13 -5 0 -10 4 -10 9 0 6 -11 22 -25 37 -14 15 -25 34 -25 43 0 19 69 -57
70 -76z m-2031 -55 c1 -5 -3 -8 -8 -8 -12 0 -22 30 -14 43 6 10 20 -13 22 -35z
m221 20 c11 -12 20 -29 20 -37 -1 -11 -9 -6 -25 14 -37 45 -33 64 5 23z m1830
-28 c17 -41 6 -50 -14 -11 -18 35 -19 41 -7 41 5 0 14 -14 21 -30z m-2022 -61
c9 -29 10 -45 3 -52 -8 -8 -11 -6 -11 6 0 10 -5 14 -15 11 -10 -4 -18 2 -24
17 -11 31 -5 38 14 13 13 -17 14 -17 15 -2 0 9 -4 20 -10 23 -14 9 -12 25 3
25 6 0 18 -19 25 -41z m210 -9 c9 -16 20 -30 25 -30 4 0 7 -4 7 -10 0 -5 -9
-10 -21 -10 -16 0 -19 -4 -13 -17 8 -20 9 -61 1 -70 -16 -16 -27 15 -26 75 1
41 -3 68 -10 70 -16 5 -13 22 4 22 9 0 24 -13 33 -30z m1612 -32 c0 -11 -5
-15 -15 -12 -8 4 -15 11 -15 18 0 6 -3 22 -6 36 l-6 25 21 -25 c11 -14 21 -33
21 -42z m-230 22 c0 -5 -2 -10 -4 -10 -3 0 -8 5 -11 10 -3 6 -1 10 4 10 6 0
11 -4 11 -10z m34 -55 c4 -25 11 -45 17 -45 5 0 9 -7 9 -16 0 -34 -29 7 -39
57 -13 60 -13 62 -2 55 5 -3 12 -26 15 -51z m-1504 3 c0 -18 -2 -20 -9 -8 -6
8 -7 18 -5 22 9 14 14 9 14 -14z m2120 -31 c0 -5 -7 -4 -15 3 -8 7 -15 20 -15
29 1 13 3 13 15 -3 8 -11 15 -24 15 -29z m-2200 3 c0 -5 -7 -7 -15 -4 -8 4
-12 10 -9 15 6 11 24 2 24 -11z m1773 -53 c-3 -5 -14 -1 -24 9 -19 17 -25 45
-13 57 9 8 43 -55 37 -66z m-1683 43 c0 -5 -4 -10 -10 -10 -5 0 -10 5 -10 10
0 6 5 10 10 10 6 0 10 -4 10 -10z m2138 -47 c25 -50 35 -93 22 -93 -5 0 -10 7
-10 15 0 7 -7 18 -16 23 -15 8 -32 92 -19 92 2 0 13 -17 23 -37z m-38 6 c0 -5
-4 -9 -10 -9 -5 0 -10 7 -10 16 0 8 5 12 10 9 6 -3 10 -10 10 -16z m-2233 -41
c-3 -8 -6 -5 -6 6 -1 11 2 17 5 13 3 -3 4 -12 1 -19z m2228 12 c3 -5 1 -10 -4
-10 -6 0 -11 5 -11 10 0 6 2 10 4 10 3 0 8 -4 11 -10z m-39 -40 c1 -20 -3 -30
-12 -30 -9 0 -14 11 -14 28 0 52 22 53 26 2z m-2061 -20 c3 -5 1 -10 -4 -10
-6 0 -11 5 -11 10 0 6 2 10 4 10 3 0 8 -4 11 -10z m2081 -55 c-6 -17 2 -45 14
-45 5 0 6 8 3 18 -2 10 3 24 11 31 13 11 15 9 15 -16 -1 -62 12 -147 23 -154
10 -7 10 -11 0 -21 -16 -16 -15 -48 3 -72 18 -24 19 -46 2 -46 -7 0 -14 -13
-15 -30 -1 -16 2 -30 7 -30 5 0 3 -13 -5 -30 -19 -36 -28 -39 -20 -5 5 18 3
23 -8 19 -7 -3 -16 3 -20 13 -3 10 -11 32 -17 48 -16 44 -21 132 -10 171 5 20
6 47 1 64 -8 28 4 100 17 100 3 0 3 -7 -1 -15z m165 -242 c-9 -16 -10 -14 -11
12 0 21 3 26 11 18 8 -8 8 -16 0 -30z m66 5 c-3 -7 -5 -2 -5 12 0 14 2 19 5
13 2 -7 2 -19 0 -25z m-2988 -60 c-9 -16 -14 -19 -17 -9 -2 7 2 17 9 22 20 13
21 11 8 -13z m2944 -20 c-2 -5 -8 -8 -14 -8 -11 0 -12 33 -2 44 8 8 23 -25 16
-36z m-2943 -17 c0 -12 -29 -41 -40 -41 -5 0 1 11 13 24 26 28 27 29 27 17z
m2765 -51 c9 -27 -12 -71 -29 -64 -12 5 -13 10 -5 26 6 10 7 33 3 51 -6 28 -5
30 9 18 9 -7 19 -21 22 -31z m155 24 c0 -8 -5 -12 -10 -9 -6 4 -8 11 -5 16 9
14 15 11 15 -7z m256 -36 c-3 -18 -5 -37 -5 -43 -1 -5 -5 -4 -10 4 -5 8 -5 26
1 42 13 38 19 37 14 -3z m-76 -192 c0 -3 -4 -8 -10 -11 -5 -3 -10 -1 -10 4 0
6 5 11 10 11 6 0 10 -2 10 -4z m93 -16 c-3 -11 -7 -20 -9 -20 -2 0 -4 9 -4 20
0 11 4 20 9 20 5 0 7 -9 4 -20z m90 -12 c13 -20 -20 -90 -66 -138 -58 -61
-150 -140 -163 -140 -8 0 -14 9 -14 19 0 12 7 18 17 17 11 0 25 13 35 34 10
19 26 35 35 35 9 0 20 9 23 20 9 33 33 75 41 75 8 0 27 32 49 78 11 25 28 25
43 0z m-153 -68 c0 -5 -5 -10 -11 -10 -5 0 -7 5 -4 10 3 6 8 10 11 10 2 0 4
-4 4 -10z m-56 -135 c-4 -8 -13 -15 -21 -15 -13 0 -13 3 -3 15 7 8 16 15 21
15 5 0 6 -7 3 -15z m21 -95 c-3 -5 -11 -10 -16 -10 -6 0 -7 5 -4 10 3 6 11 10
16 10 6 0 7 -4 4 -10z m-170 -110 c-3 -5 -18 -10 -33 -9 l-27 1 25 8 c35 11
42 11 35 0z m-10 -70 c-3 -5 -10 -10 -16 -10 -5 0 -9 5 -9 10 0 6 7 10 16 10
8 0 12 -4 9 -10z m5 -64 c0 -3 -4 -8 -10 -11 -5 -3 -10 -1 -10 4 0 6 5 11 10
11 6 0 10 -2 10 -4z m-110 -60 c0 -11 -19 -15 -25 -6 -3 5 1 10 9 10 9 0 16
-2 16 -4z m-160 -16 c0 -5 -2 -10 -4 -10 -3 0 -8 5 -11 10 -3 6 -1 10 4 10 6
0 11 -4 11 -10z m-3540 -208 c0 -15 -40 -56 -47 -49 -3 4 4 18 17 32 25 27 30
30 30 17z m73 -99 c10 -9 -23 -43 -41 -43 -13 0 -13 3 1 18 10 10 14 22 10 25
-3 4 0 7 9 7 8 0 18 -3 21 -7z m17 -43 c0 -5 -4 -10 -10 -10 -5 0 -10 5 -10
10 0 6 5 10 10 10 6 0 10 -4 10 -10z m-30 -90 c-6 -11 -15 -20 -20 -20 -15 0
-12 11 7 32 9 10 12 18 6 18 -16 0 -53 -40 -54 -58 -5 -58 -4 -72 3 -72 4 0 8
10 8 23 0 22 16 47 31 47 10 0 -8 -61 -21 -74 -5 -5 -10 -18 -10 -28 0 -11 -7
-18 -19 -18 -21 0 -31 35 -31 111 0 50 23 90 48 81 7 -2 12 3 12 11 0 9 8 17
18 19 22 5 37 -44 22 -72z m2940 -394 c0 -3 -4 -8 -10 -11 -5 -3 -10 -1 -10 4
0 6 5 11 10 11 6 0 10 -2 10 -4z m-1243 -362 c47 -22 107 -78 158 -147 18 -25
38 -37 32 -19 -1 4 3 8 8 10 6 1 11 -6 13 -18 2 -11 7 -20 12 -20 15 0 31 -72
19 -86 -15 -18 -32 -9 -53 29 -64 112 -202 197 -320 197 -74 0 -113 -19 -135
-65 -29 -62 -58 -153 -66 -207 -7 -49 -25 -66 -25 -25 0 16 -9 28 -27 36 -26
12 -27 14 -9 26 10 8 16 18 13 22 -10 16 23 108 48 135 14 15 25 32 25 38 0 5
5 10 11 10 5 0 8 4 5 9 -8 12 89 83 133 98 46 15 93 8 158 -23z m-390 -346
c-3 -8 -6 -5 -6 6 -1 11 2 17 5 13 3 -3 4 -12 1 -19z m55 -83 c3 -14 1 -25 -3
-25 -5 0 -9 11 -9 25 0 14 2 25 4 25 2 0 6 -11 8 -25z m131 11 c3 -7 0 -50 -5
-95 -13 -99 -3 -151 51 -261 l36 -75 85 -30 c188 -69 212 -82 225 -128 6 -21
22 -50 36 -65 48 -52 65 -91 60 -138 -1 -14 -72 -44 -105 -44 -27 0 -136 56
-136 70 0 5 -13 11 -29 15 -32 7 -111 82 -171 164 -42 57 -110 191 -110 216 0
8 -3 15 -7 15 -9 0 -33 49 -33 67 0 7 -5 13 -11 13 -6 0 -9 7 -5 15 3 8 -1 33
-9 55 -8 24 -10 42 -4 45 5 4 9 0 9 -9 0 -8 9 -35 20 -61 11 -26 23 -61 26
-78 3 -17 9 -34 13 -37 5 -3 12 -16 16 -30 19 -60 96 -147 170 -190 22 -13 50
-32 62 -43 22 -19 83 -30 80 -14 -1 5 13 11 32 13 19 2 36 6 39 8 6 6 -84 46
-103 46 -24 0 -72 27 -79 45 -3 9 -19 21 -35 26 -20 7 -41 29 -65 70 -20 33
-36 63 -36 66 0 3 -6 19 -14 36 -21 47 -47 133 -47 154 0 10 3 45 6 78 4 33 7
68 8 78 2 20 23 23 30 3z m-123 -137 c0 -5 -4 -9 -10 -9 -5 0 -10 7 -10 16 0
8 5 12 10 9 6 -3 10 -10 10 -16z m793 7 c7 -17 87 -20 87 -3 0 6 6 2 14 -8 15
-21 10 -55 -9 -55 -7 0 -15 -6 -18 -14 -4 -10 1 -13 19 -11 16 1 24 -3 24 -13
0 -13 3 -13 19 2 17 16 18 15 18 -11 -1 -16 3 -41 7 -58 7 -27 6 -28 -7 -12
-14 16 -15 16 -22 -5 -4 -13 -8 -27 -9 -33 -1 -5 -7 -9 -14 -8 -15 4 -30 -26
-27 -54 1 -13 -2 -23 -7 -23 -4 0 -8 5 -8 10 0 6 -7 10 -15 10 -20 0 -19 -19
3 -43 16 -19 16 -19 -3 -14 -16 5 -24 -1 -37 -29 -22 -43 -22 -54 -3 -54 18 0
20 -16 4 -26 -8 -5 -6 -10 5 -16 22 -12 20 -35 -3 -50 -15 -9 -18 -19 -14 -42
l6 -29 -20 20 c-20 20 -22 73 -3 73 17 0 -3 40 -27 56 -20 13 -27 13 -34 3 -6
-10 -13 -10 -31 -2 l-23 12 25 1 c24 1 24 1 5 13 -12 7 -20 19 -20 27 1 8 -9
39 -22 69 -12 29 -20 57 -18 62 10 14 -6 57 -23 64 -10 4 -22 -1 -29 -11 -14
-19 -68 -23 -84 -7 -8 8 -8 31 1 81 11 68 12 69 50 82 21 7 43 9 49 6 6 -4 11
0 11 8 0 18 2 19 24 10 9 -3 16 -12 16 -20 0 -16 28 -18 49 -5 9 6 10 11 2 15
-6 4 -9 12 -5 17 4 6 14 3 25 -7 13 -12 19 -13 19 -4 0 8 9 11 25 8 14 -3 25
-1 25 3 0 5 -9 9 -20 9 -11 0 -20 5 -20 10 0 16 37 12 43 -4z m467 -36 c0 -5
-4 -10 -10 -10 -5 0 -10 5 -10 10 0 6 5 10 10 10 6 0 10 -4 10 -10z m140 -76
c12 -31 12 -34 1 -34 -5 0 -11 8 -15 18 -3 9 -9 23 -12 30 -3 6 -1 12 5 12 7
0 16 -12 21 -26z m-660 -359 c0 -8 -4 -15 -9 -15 -5 0 -11 7 -15 15 -3 9 0 15
9 15 8 0 15 -7 15 -15z m-25 -105 c3 -6 -1 -7 -9 -4 -18 7 -21 14 -7 14 6 0
13 -4 16 -10z m45 -40 c8 -5 11 -12 7 -16 -4 -4 -15 0 -24 9 -18 18 -8 23 17
7z m10 -52 c0 -6 -7 -7 -16 -4 -9 3 -20 6 -25 6 -6 0 -8 4 -5 9 8 12 46 2 46
-11z m1457 -224 c-3 -3 -12 -4 -19 -1 -8 3 -5 6 6 6 11 1 17 -2 13 -5z m77
-659 c3 -8 2 -15 -3 -15 -5 0 -14 7 -21 15 -10 12 -10 15 3 15 8 0 17 -7 21
-15z m13 -57 c-3 -7 -5 -2 -5 12 0 14 2 19 5 13 2 -7 2 -19 0 -25z m-87 -252
c0 -3 -4 -8 -10 -11 -5 -3 -10 -1 -10 4 0 6 5 11 10 11 6 0 10 -2 10 -4z
m-2240 -626 c0 -28 -4 -40 -14 -40 -20 0 -29 30 -11 36 8 4 15 15 15 25 0 10
2 19 5 19 3 0 5 -18 5 -40z m-145 -40 c3 -5 1 -10 -4 -10 -6 0 -11 5 -11 10 0
6 2 10 4 10 3 0 8 -4 11 -10z m103 -2 c15 -15 16 -48 0 -48 -6 0 -8 -3 -5 -7
9 -9 57 37 57 54 0 7 5 13 10 13 6 0 10 -9 10 -20 0 -11 -3 -20 -8 -20 -4 0
-13 -9 -20 -20 -10 -17 -9 -23 13 -42 16 -14 21 -24 14 -29 -7 -4 1 -14 20
-25 20 -12 31 -26 31 -41 0 -13 7 -26 15 -29 8 -4 15 -10 15 -15 0 -4 -6 -6
-14 -3 -9 3 -15 -4 -18 -23 -3 -24 0 -29 16 -31 12 0 22 -6 24 -12 2 -5 12
-10 23 -10 10 0 19 -5 19 -11 0 -5 -4 -7 -10 -4 -14 9 -50 -13 -50 -30 0 -8 6
-12 14 -9 8 3 17 1 21 -5 3 -6 0 -9 -8 -5 -17 6 -32 -12 -18 -21 6 -3 8 -12 4
-20 -3 -11 2 -15 18 -15 19 0 21 -2 9 -10 -12 -7 -12 -13 -4 -27 13 -21 96
-41 102 -24 2 6 8 11 14 11 7 0 7 -5 -1 -13 -18 -23 -1 -27 32 -7 33 21 47 18
46 -8 0 -11 -3 -12 -6 -4 -6 16 -21 15 -38 -2 -11 -10 -11 -16 -2 -25 7 -7 13
-16 13 -21 1 -6 2 -14 3 -19 2 -14 65 -33 85 -25 11 4 15 13 11 28 -5 19 -5
19 5 3 10 -15 8 -23 -11 -43 -12 -13 -18 -24 -13 -24 5 -1 -2 -10 -15 -20 -13
-11 -19 -20 -15 -20 5 0 21 11 35 24 25 23 27 24 60 8 19 -9 42 -27 52 -39 10
-13 23 -20 29 -17 6 4 24 7 40 6 15 0 26 4 23 9 -7 10 18 13 28 3 10 -10 -4
-34 -20 -34 -8 0 -13 -5 -11 -12 6 -16 48 -21 48 -5 0 8 4 7 10 -3 5 -8 10
-10 10 -4 0 19 58 13 63 -7 3 -10 0 -20 -7 -23 -6 -2 -4 -5 5 -5 9 -1 20 -8
23 -17 4 -10 13 -13 25 -9 14 4 23 0 31 -15 6 -11 7 -20 3 -19 -25 4 -24 -3 1
-16 31 -16 32 -16 57 28 5 9 19 17 29 17 11 0 20 5 20 10 0 6 -3 10 -7 10 -5
0 -8 29 -9 64 0 52 2 63 14 58 11 -4 13 0 8 15 -10 30 18 50 40 29 20 -20 18
-22 37 34 l16 45 1 -125 c1 -145 12 -205 44 -240 50 -54 115 -210 142 -339 14
-68 23 -126 20 -128 -3 -3 -27 13 -53 35 -52 43 -211 162 -217 162 -2 0 -32
19 -66 43 -34 23 -96 60 -138 82 -43 22 -102 55 -132 72 -30 17 -84 47 -118
67 -35 20 -68 36 -72 36 -5 0 -15 8 -22 18 -7 9 -31 23 -53 31 -22 7 -48 20
-57 28 -9 8 -22 12 -27 8 -6 -3 -11 1 -11 9 0 9 -9 16 -20 16 -14 0 -20 6 -18
17 2 10 -5 19 -16 21 -10 2 -28 14 -40 26 -12 12 -29 25 -39 29 -10 4 -16 11
-12 16 3 5 -4 12 -15 16 -11 3 -20 11 -20 16 0 5 -7 9 -15 9 -8 0 -15 7 -15
15 0 9 -8 19 -19 23 -19 7 -65 41 -108 80 -14 12 -32 22 -39 22 -8 0 -14 5
-14 10 0 6 -8 14 -17 17 -10 4 -27 17 -39 30 -12 13 -26 23 -32 23 -6 0 -14 5
-17 11 -5 7 5 8 29 4 24 -5 36 -3 36 4 0 6 -15 11 -32 12 -32 1 -93 16 -74 18
6 1 1 8 -10 16 -18 15 -18 15 8 9 15 -3 32 -3 38 1 19 12 -10 25 -40 19 -22
-5 -23 -4 -7 6 24 16 11 31 -20 24 l-26 -7 22 22 22 22 29 -30 c32 -35 45 -39
47 -13 1 10 -11 26 -25 35 -19 11 -22 17 -10 17 9 0 19 -6 22 -12 3 -7 3 -3 0
9 -4 16 2 26 20 39 29 18 26 34 -7 35 -15 0 -17 2 -7 6 38 15 51 48 35 88 -8
20 -8 20 13 1 12 -11 22 -31 23 -45 1 -25 1 -25 10 4 5 17 7 36 4 43 -6 15 27
16 43 0 6 -6 14 -9 17 -6 4 3 -3 15 -15 26 l-22 20 29 16 c34 19 46 19 61 4z
m-353 -168 c3 -5 1 -10 -4 -10 -6 0 -11 5 -11 11 0 7 -11 9 -29 6 -25 -5 -28
-3 -24 13 5 18 7 18 33 5 16 -8 32 -19 35 -25z m135 15 c0 -8 -4 -15 -10 -15
-5 0 -10 7 -10 15 0 8 5 15 10 15 6 0 10 -7 10 -15z m-711 -23 c-6 -17 -17
-28 -29 -29 -11 -1 -18 2 -15 8 4 5 13 9 21 9 9 0 12 5 8 11 -5 9 10 28 23 29
1 0 -2 -13 -8 -28z m731 -10 c0 -4 -13 -16 -30 -25 -26 -16 -30 -16 -30 -3 0
9 7 16 15 16 8 0 15 5 15 10 0 6 7 10 15 10 8 0 15 -4 15 -8z m-105 -18 c28
-18 33 -34 10 -34 -8 0 -15 7 -15 15 0 8 -7 15 -15 15 -8 0 -15 5 -15 10 0 14
7 13 35 -6z m-28 -34 c7 0 10 -7 7 -15 -4 -8 -14 -15 -23 -14 -12 0 -13 2 -2
6 10 4 5 10 -15 19 -26 13 -27 14 -4 9 14 -2 30 -5 37 -5z m505 -22 c-9 -9
-15 -9 -24 0 -9 9 -7 12 12 12 19 0 21 -3 12 -12z m-467 -38 c3 -5 -1 -10 -9
-10 -8 0 -18 5 -21 10 -3 6 1 10 9 10 8 0 18 -4 21 -10z m-140 -20 c3 -5 2
-10 -4 -10 -5 0 -13 5 -16 10 -3 6 -2 10 4 10 5 0 13 -4 16 -10z m94 -29 c-8
-2 -7 -7 2 -13 11 -8 11 -9 -1 -5 -8 2 -15 9 -15 15 0 5 -3 14 -7 18 -5 4 -8
3 -8 -3 0 -7 -9 -9 -22 -5 -23 6 -23 6 2 12 25 6 71 -11 49 -19z m46 -31 c3
-5 1 -10 -4 -10 -6 0 -11 5 -11 10 0 6 2 10 4 10 3 0 8 -4 11 -10z m528 -50
c-3 -11 -7 -20 -9 -20 -2 0 -4 9 -4 20 0 11 4 20 9 20 5 0 7 -9 4 -20z m742
-160 c3 -5 -1 -10 -9 -10 -9 0 -16 5 -16 10 0 6 4 10 9 10 6 0 13 -4 16 -10z
m-415 -70 c0 -5 -4 -10 -9 -10 -6 0 -13 5 -16 10 -3 6 1 10 9 10 9 0 16 -4 16
-10z m532 -167 c10 -9 18 -23 18 -31 0 -12 -6 -10 -25 8 -38 35 -31 58 7 23z
m73 -59 c26 -17 58 -89 54 -120 -1 -11 0 -26 4 -34 5 -14 12 -51 22 -122 3
-15 12 -45 21 -65 18 -44 46 -194 38 -202 -12 -12 -33 32 -39 82 -4 29 -15 88
-25 132 -11 44 -24 109 -31 145 -6 36 -13 76 -15 90 -8 44 -35 91 -57 100 -12
5 -16 9 -9 9 7 1 24 -6 37 -15z"/>
<path d="M4218 8895 c-6 -30 -3 -43 8 -33 3 4 4 19 2 35 l-3 28 -7 -30z"/>
<path d="M1923 3566 c1 -11 9 -21 17 -23 10 -3 11 -2 4 4 -6 4 -14 15 -17 23
-5 11 -6 9 -4 -4z"/>
<path d="M1970 3461 c0 -10 19 -25 25 -20 1 2 -3 10 -11 17 -8 7 -14 8 -14 3z"/>
<path d="M2025 3460 c-3 -5 -2 -10 4 -10 5 0 13 5 16 10 3 6 2 10 -4 10 -5 0
-13 -4 -16 -10z"/>
<path d="M2061 3374 c0 -11 3 -14 6 -6 3 7 2 16 -1 19 -3 4 -6 -2 -5 -13z"/>
<path d="M1775 3310 c3 -5 11 -10 16 -10 6 0 7 5 4 10 -3 6 -11 10 -16 10 -6
0 -7 -4 -4 -10z"/>
<path d="M1740 3280 c0 -5 9 -10 21 -10 11 0 17 5 14 10 -3 6 -13 10 -21 10
-8 0 -14 -4 -14 -10z"/>
<path d="M1810 3220 c0 -5 10 -10 23 -10 18 0 19 2 7 10 -19 13 -30 13 -30 0z"/>
<path d="M1860 3189 c0 -5 5 -7 10 -4 6 3 10 8 10 11 0 2 -4 4 -10 4 -5 0 -10
-5 -10 -11z"/>
<path d="M1890 3166 c0 -2 7 -7 16 -10 8 -3 12 -2 9 4 -6 10 -25 14 -25 6z"/>
<path d="M2290 2970 c0 -5 5 -10 11 -10 5 0 7 5 4 10 -3 6 -8 10 -11 10 -2 0
-4 -4 -4 -10z"/>
<path d="M2407 2946 c-4 -10 0 -12 15 -8 13 3 24 -1 30 -12 5 -9 16 -16 24
-16 11 0 8 7 -10 25 -28 28 -51 32 -59 11z"/>
<path d="M2420 2880 c0 -5 5 -10 10 -10 6 0 10 5 10 10 0 6 -4 10 -10 10 -5 0
-10 -4 -10 -10z"/>
<path d="M2450 2831 c0 -5 7 -11 15 -15 9 -3 15 0 15 9 0 8 -7 15 -15 15 -8 0
-15 -4 -15 -9z"/>
<path d="M3500 9853 c0 -7 3 -13 8 -13 9 0 102 -122 124 -163 16 -30 16 -31
15 -7 -2 25 -36 73 -109 154 -21 22 -38 35 -38 29z"/>
<path d="M7370 9700 c0 -14 -60 -80 -73 -80 -6 0 2 14 18 30 36 38 20 39 -20
2 -36 -33 -111 -82 -125 -82 -5 0 -10 -7 -10 -15 0 -17 -18 -19 -40 -5 -10 7
-12 12 -4 18 6 4 23 27 38 52 l28 45 -59 -60 c-70 -72 -125 -115 -150 -116
-11 0 -13 -3 -5 -6 24 -9 -8 -33 -45 -33 -28 0 -34 3 -29 16 3 9 6 18 6 20 0
2 6 4 14 4 8 0 16 7 19 14 4 10 1 13 -8 10 -20 -8 -6 38 17 54 10 7 18 20 18
29 0 13 -8 9 -31 -13 -31 -30 -46 -52 -76 -116 -10 -21 -24 -38 -30 -38 -7 0
-19 -13 -28 -30 -9 -16 -20 -30 -26 -30 -6 0 -7 6 -4 13 4 6 -1 3 -9 -8 -57
-71 -79 -95 -88 -95 -5 0 -6 5 -3 10 3 6 2 10 -3 10 -5 0 -14 -10 -20 -22 -11
-21 -11 -19 -6 11 4 23 3 31 -5 27 -6 -4 -11 -14 -11 -21 0 -8 -6 -29 -14 -47
-8 -18 -18 -42 -21 -53 l-7 -20 -8 20 c-8 19 -9 19 -9 -2 -1 -13 -17 -39 -36
-59 -19 -19 -35 -41 -35 -47 0 -7 8 -3 16 8 15 19 15 19 8 -9 -4 -16 -14 -41
-21 -55 -15 -26 -15 -26 -10 11 3 21 1 40 -4 44 -13 7 -2 83 15 103 9 11 8 13
-4 9 -8 -2 -22 -26 -31 -52 -11 -34 -18 -43 -23 -31 -3 9 -10 13 -16 10 -6 -4
-7 -11 -4 -17 4 -5 8 -30 9 -54 3 -34 0 -44 -12 -44 -10 0 -13 6 -9 16 10 25
-4 37 -20 17 -12 -16 -13 -12 -14 34 0 28 4 55 10 58 5 3 9 18 9 33 -3 51 1
63 27 72 14 6 23 14 20 19 -3 5 1 14 9 21 8 7 12 16 9 21 -3 5 -2 15 3 22 4 6
8 18 10 26 1 8 8 18 16 22 8 5 26 24 41 44 22 29 25 37 14 49 -11 12 -18 11
-45 -10 -17 -13 -38 -21 -46 -18 -8 3 -21 -3 -28 -14 -8 -10 -25 -24 -37 -31
-32 -17 -64 -45 -134 -115 -36 -36 -64 -56 -73 -52 -8 3 -17 1 -21 -5 -3 -6
-11 -8 -17 -6 -11 3 -47 -33 -47 -47 0 -3 -29 -36 -65 -74 -36 -37 -65 -70
-65 -74 0 -14 21 -8 26 7 13 32 19 12 19 -59 0 -41 -3 -72 -7 -69 -5 2 -8 -7
-8 -21 0 -13 4 -26 9 -28 4 -1 12 -29 15 -61 6 -47 5 -58 -8 -63 -9 -3 -16
-14 -16 -24 0 -16 -27 -48 -33 -39 -20 25 -44 79 -37 79 6 0 10 7 10 15 0 8
-7 15 -15 15 -9 0 -15 9 -15 25 0 16 6 25 15 25 8 0 15 4 15 10 0 5 -7 7 -15
3 -13 -4 -15 0 -11 23 6 33 46 115 61 127 6 5 3 13 -8 21 -18 14 -18 16 2 57
24 50 27 71 6 43 -14 -19 -14 -18 -15 3 0 15 10 28 29 37 16 9 30 13 33 11 2
-2 12 9 22 26 l18 30 -24 -13 c-44 -25 -120 -103 -143 -148 -33 -64 -44 -114
-47 -203 -2 -83 -16 -91 -25 -16 -3 24 -11 50 -17 58 -8 11 -8 15 2 18 6 3 12
11 12 19 0 9 -5 12 -11 8 -9 -5 -10 7 -5 42 12 85 47 163 91 208 26 25 12 29
-19 5 -16 -12 -33 -18 -43 -14 -10 3 -14 3 -10 -1 4 -4 1 -12 -7 -18 -25 -21
-66 -189 -79 -321 -10 -110 -15 -130 -30 -133 -20 -4 -24 24 -4 31 9 3 8 8 -3
22 -11 13 -15 47 -16 124 -1 58 -6 107 -10 109 -10 4 -36 -85 -35 -122 0 -15
6 -34 12 -42 6 -8 9 -14 6 -14 -3 0 -2 -14 3 -31 12 -40 3 -56 -17 -32 -14 17
-14 17 -8 -2 3 -11 10 -38 15 -60 5 -22 11 -50 14 -63 7 -31 -9 -19 -24 18 -7
16 -17 30 -22 30 -6 0 -7 7 -4 16 3 9 -1 25 -9 37 -8 12 -15 29 -15 39 0 10
-4 18 -10 18 -5 0 -7 -6 -4 -14 3 -8 1 -17 -4 -20 -23 -14 -43 163 -23 202 5
9 17 49 27 87 9 39 20 75 23 80 3 6 -6 -3 -21 -20 -15 -16 -28 -42 -28 -56 0
-15 -6 -45 -14 -67 -9 -25 -13 -66 -11 -108 2 -40 0 -71 -6 -75 -13 -8 0 -59
15 -59 6 0 4 -5 -4 -10 -12 -7 -12 -12 -2 -22 9 -9 12 -9 12 1 0 26 18 -1 29
-43 6 -24 14 -51 18 -61 9 -26 -16 -9 -28 19 -8 17 -8 16 -3 -9 3 -16 10 -33
16 -36 6 -4 8 -12 4 -17 -4 -6 2 -16 12 -21 11 -6 24 -30 31 -56 6 -25 16 -45
21 -45 6 0 10 -10 10 -21 0 -12 8 -28 18 -35 14 -11 14 -13 2 -14 -18 0 -80
51 -80 67 0 6 -7 13 -15 17 -8 3 -15 12 -15 19 0 25 -31 77 -42 71 -7 -4 -8
-2 -4 5 4 6 -2 31 -13 54 -11 23 -20 62 -20 87 -1 45 -7 121 -11 130 -8 18
-25 -81 -19 -108 7 -31 -7 -82 -23 -82 -4 0 -15 14 -23 31 -17 32 -33 34 -18
2 5 -10 9 -35 9 -55 -1 -26 4 -38 16 -41 9 -3 29 -24 44 -48 15 -24 35 -56 46
-71 25 -37 23 -56 -4 -32 l-21 19 17 -27 c11 -16 23 -25 32 -21 12 4 14 0 8
-21 -6 -27 -3 -32 81 -97 22 -17 40 -36 40 -42 0 -7 12 -11 29 -9 25 3 28 1
17 -12 -10 -12 -9 -14 11 -9 19 4 20 3 8 -7 -12 -9 -11 -10 7 -5 29 8 51 -4
32 -17 -11 -8 -10 -9 4 -4 9 3 29 0 44 -7 l27 -12 -30 -6 c-28 -6 -28 -6 26
-31 30 -14 64 -28 74 -32 42 -15 4 -16 -50 -2 -31 8 -62 12 -67 9 -6 -3 -7 -1
-3 5 3 6 -4 14 -16 18 -13 4 -29 15 -36 25 -7 11 -19 19 -26 19 -7 0 -25 9
-40 21 -14 11 -26 16 -26 11 0 -12 34 -42 48 -42 17 0 83 -66 80 -80 -2 -7 3
-15 11 -18 9 -3 11 0 6 8 -6 10 3 11 41 5 53 -8 94 -24 61 -25 -10 0 -15 -4
-12 -10 3 -5 -2 -10 -12 -10 -15 0 -14 -2 5 -16 22 -15 21 -36 -1 -33 -7 1
-23 0 -37 -1 -24 -2 -24 -2 5 -11 17 -5 46 -15 65 -21 19 -6 60 -10 92 -10 39
1 63 -4 73 -14 17 -18 20 -34 5 -34 -5 0 -10 -7 -10 -15 0 -9 6 -12 18 -8 15
6 15 3 -3 -18 l-20 -24 26 23 c14 12 35 22 47 22 16 0 22 6 22 23 0 18 2 19
10 7 8 -12 13 -13 30 -2 23 14 30 15 30 4 0 -5 -11 -14 -25 -20 -14 -6 -25
-18 -25 -25 0 -7 -8 -22 -18 -33 -28 -29 -55 -74 -50 -80 10 -9 55 15 55 30 0
8 -5 13 -11 10 -6 -3 -2 2 8 10 11 9 23 16 28 16 4 0 8 6 8 14 0 8 7 17 16 20
8 3 12 10 9 16 -3 5 -1 10 6 10 7 0 23 9 35 21 12 11 36 21 53 21 18 1 34 5
37 10 3 5 14 6 24 3 10 -3 21 -1 25 5 5 8 12 7 24 -4 15 -13 20 -11 59 25 45
41 88 51 98 24 4 -10 13 -13 25 -10 11 4 19 2 19 -4 0 -6 7 -11 15 -11 17 0
20 -16 5 -25 -16 -10 -12 -55 4 -55 8 0 24 12 35 28 13 18 20 22 21 11 0 -8
-6 -21 -12 -27 -7 -7 -13 -35 -14 -62 -1 -50 2 -54 43 -53 7 0 12 -2 11 -6 -1
-3 2 -19 7 -35 9 -34 -7 -87 -42 -133 -23 -29 -23 -34 -10 -60 14 -26 15 -116
2 -150 -6 -17 5 -16 25 2 15 14 17 11 18 -31 1 -25 -2 -43 -7 -40 -9 6 -5 -23
7 -54 3 -8 6 -17 6 -20 1 -3 7 -14 14 -25 9 -14 15 -16 18 -7 3 6 10 9 16 6 5
-3 9 2 8 12 -6 56 1 86 20 91 11 3 20 9 20 14 0 5 4 9 8 9 14 0 11 -42 -5 -66
-14 -22 -14 -24 3 -31 11 -4 24 -13 30 -21 6 -8 16 -12 22 -8 7 4 12 2 12 -3
0 -6 -4 -11 -9 -11 -15 0 -19 -59 -4 -71 9 -9 14 -7 19 5 9 22 21 20 27 -5 3
-12 10 -18 17 -14 8 5 8 10 0 20 -7 8 -9 24 -6 37 3 13 3 17 0 11 -9 -20 -24
-15 -24 6 0 24 18 37 32 23 15 -15 19 -115 5 -124 -7 -4 -21 -5 -33 -2 -18 5
-20 2 -16 -25 2 -17 8 -34 13 -37 5 -3 9 -14 9 -25 0 -10 4 -19 9 -19 12 0 25
56 16 70 -10 16 58 -1 71 -18 6 -8 15 -12 21 -9 14 9 9 -54 -7 -79 -15 -24 -7
-59 11 -48 8 4 9 -3 4 -26 -6 -29 -5 -32 10 -26 14 5 16 2 12 -14 -4 -16 -1
-20 11 -18 10 2 20 19 26 43 10 43 46 81 58 62 13 -21 8 -30 -9 -16 -15 13
-15 11 -8 -16 4 -16 7 -58 6 -92 -1 -61 -1 -63 24 -63 17 0 28 -7 34 -22 l8
-21 16 24 17 23 0 -27 c0 -16 -5 -27 -14 -27 -17 0 -46 -43 -46 -67 0 -15 2
-16 10 -3 8 13 10 12 11 -5 1 -11 1 -31 0 -44 -2 -22 0 -23 14 -11 9 7 14 19
11 27 -3 7 -1 13 4 13 6 0 10 7 10 15 0 8 5 15 10 15 13 0 13 -23 0 -36 -6 -6
-11 -28 -11 -50 -1 -21 -8 -54 -16 -72 -11 -26 -12 -36 -3 -48 16 -19 34 -18
26 2 -3 8 1 26 10 39 9 13 13 28 10 33 -3 6 4 12 15 15 15 4 20 11 16 21 -5
11 0 16 13 16 15 0 20 7 20 29 0 45 9 60 50 80 29 14 42 16 51 7 9 -8 10 -8 5
2 -4 7 -2 12 7 12 7 0 23 14 36 30 12 17 26 28 32 25 5 -4 9 -3 8 2 -1 4 -1
18 0 30 1 19 4 20 26 10 14 -7 25 -17 25 -23 0 -7 6 -14 14 -17 13 -5 28 12
72 85 6 10 14 15 17 11 4 -3 7 4 7 17 0 19 2 21 16 10 13 -11 16 -10 21 10 6
22 7 23 14 4 7 -18 8 -18 8 3 1 12 -4 23 -10 25 -7 2 -10 10 -7 18 2 8 12 -1
26 -23 24 -42 41 -46 60 -17 7 12 17 18 22 15 6 -3 10 3 10 14 0 26 8 26 57 2
59 -29 105 -41 154 -41 90 0 221 -95 273 -198 36 -72 86 -225 86 -265 0 -38
18 -87 32 -87 4 0 8 -10 8 -23 0 -13 3 -27 7 -31 4 -4 7 -26 8 -49 l0 -43 -37
2 c-36 2 -49 -8 -28 -21 6 -3 10 -13 10 -21 0 -20 43 -61 48 -46 7 21 20 13
14 -10 -4 -16 -2 -19 9 -13 11 7 12 6 2 -6 -10 -12 -10 -18 -1 -27 9 -9 9 -12
0 -12 -17 0 -15 -14 8 -40 20 -23 24 -34 21 -57 -1 -6 3 -14 9 -18 7 -4 7 -12
0 -26 -6 -10 -7 -19 -2 -19 15 0 34 -56 28 -78 -4 -12 -1 -22 7 -25 9 -3 13
-15 10 -31 -3 -14 2 -49 10 -78 9 -29 18 -88 21 -130 5 -76 29 -170 49 -196 8
-10 7 -16 -4 -23 -10 -6 -10 -9 -1 -9 6 0 12 -4 12 -9 0 -20 57 -131 63 -124
4 3 7 1 7 -6 0 -8 7 -11 15 -7 9 3 18 -1 21 -9 4 -8 12 -15 20 -15 7 0 17 -7
22 -17 9 -15 13 -15 60 0 58 19 106 14 127 -15 7 -12 18 -17 25 -13 23 14 70
99 70 126 0 15 7 40 15 55 8 16 15 38 15 49 0 11 9 26 21 33 12 7 19 16 16 19
-3 3 10 34 29 69 19 35 34 68 34 73 0 6 11 26 24 46 22 32 55 139 59 191 1 11
7 27 13 35 6 8 14 36 17 63 3 29 12 55 21 61 9 7 16 22 16 34 0 12 7 24 15 27
9 4 15 19 15 36 0 16 4 27 9 23 6 -3 20 8 32 25 13 16 29 30 36 30 18 0 65
104 67 152 1 25 9 45 19 53 13 9 17 28 17 80 0 67 0 68 20 50 18 -17 19 -16
26 9 3 14 4 41 1 59 -2 19 2 41 10 54 8 12 12 27 8 32 -3 6 -13 36 -21 67 -12
48 -12 58 0 76 11 16 13 48 9 156 -5 124 -9 143 -34 196 -16 33 -29 73 -28 90
1 32 16 89 18 71 1 -5 8 1 16 15 7 14 17 24 22 23 17 -3 44 19 39 33 -3 7 3
18 14 24 14 7 20 7 20 0 0 -5 3 -10 8 -10 4 0 7 18 7 41 0 22 6 44 14 48 21
13 -60 169 -116 221 -42 41 -44 45 -27 57 10 7 33 13 51 13 18 0 33 5 33 10 0
6 10 10 23 10 12 0 27 4 33 8 16 11 24 40 12 44 -7 3 12 16 42 31 60 30 57 34
-9 11 -24 -8 -45 -13 -48 -11 -5 6 63 41 110 56 57 19 37 24 -27 8 -56 -15
-69 -11 -41 13 21 18 19 29 -5 23 -38 -10 -22 17 39 67 13 11 28 20 33 20 4 0
8 7 8 15 0 13 -26 21 -53 16 -5 -1 -6 3 -2 9 3 6 11 7 17 4 6 -4 8 -2 4 4 -9
15 12 26 28 13 9 -8 18 -3 35 19 25 35 11 40 -21 8 -14 -14 -19 -16 -15 -5 4
11 -4 9 -30 -9 -20 -13 -41 -23 -47 -21 -6 2 -33 -13 -60 -34 -27 -22 -54 -39
-61 -39 -7 0 -30 -16 -51 -35 -21 -19 -41 -35 -45 -35 -16 0 -18 18 -3 24 8 3
12 10 9 16 -4 6 -11 8 -16 5 -5 -3 -6 1 -3 9 4 11 0 13 -17 9 -16 -5 -20 -3
-14 6 4 7 16 11 26 8 34 -9 139 42 139 67 0 3 -21 -4 -46 -14 -25 -11 -50 -17
-56 -14 -5 3 -16 -2 -23 -12 -13 -18 -15 -18 -32 -1 -27 26 -7 49 47 53 110
10 128 13 173 33 27 12 53 21 58 21 15 0 10 -17 -7 -24 -9 -4 -14 -9 -10 -13
3 -3 15 2 26 12 11 10 28 15 40 12 18 -5 21 -2 19 21 0 4 -6 6 -14 4 -7 -1
-16 2 -20 8 -3 5 -1 10 6 10 9 0 9 3 0 14 -9 10 -21 11 -55 4 -57 -12 -122 -7
-119 9 2 9 -20 12 -83 11 -87 -1 -109 7 -109 39 0 9 -6 18 -13 21 -9 3 -11 -3
-6 -22 4 -16 2 -26 -5 -26 -6 0 -11 11 -11 25 0 14 -4 25 -10 25 -5 0 -10 -8
-10 -17 0 -20 -42 -43 -77 -43 -13 0 -23 -4 -23 -9 0 -4 11 -6 25 -3 25 4 31
-4 17 -23 -12 -16 -77 -36 -80 -25 -2 5 -12 10 -23 10 -27 0 -24 28 4 33 12 2
6 4 -15 4 -34 0 -71 22 -67 40 1 4 -3 20 -9 35 -6 16 -9 41 -6 58 4 16 3 30 0
30 -16 0 -33 -26 -28 -42 7 -27 -13 -21 -34 10 -37 56 -84 165 -84 195 0 22
-3 28 -9 18 -5 -7 -6 -22 -4 -32 7 -25 -13 -25 -27 0 -5 11 -16 26 -22 33 -7
8 -17 21 -23 30 -5 8 -18 27 -28 41 -10 14 -27 72 -39 129 -11 56 -24 105 -29
106 -5 2 -9 19 -9 37 0 58 -15 46 -17 -13 -1 -42 3 -59 15 -69 9 -7 12 -13 7
-13 -6 0 -10 -16 -9 -35 1 -23 -2 -35 -9 -32 -6 2 -12 20 -12 39 -1 20 -10 48
-19 63 -39 59 -65 232 -48 318 5 26 6 47 1 47 -17 0 -9 29 11 40 11 6 20 15
20 21 0 6 -4 7 -10 4 -6 -3 -10 4 -11 17 0 13 -3 17 -6 11 -7 -18 -23 -16 -23
1 0 24 -17 28 -23 6 -3 -11 -1 -18 4 -14 5 3 9 0 9 -5 0 -13 -10 -14 -28 -3
-7 5 -10 16 -6 25 3 10 1 17 -5 17 -6 0 -11 -7 -11 -15 0 -8 -7 -15 -15 -15
-20 0 -19 19 2 42 23 25 28 59 8 52 -8 -4 -15 -11 -15 -17 0 -8 -3 -8 -11 0
-13 13 -5 24 46 74 41 40 53 36 21 -6 -21 -27 -23 -35 -12 -35 20 0 59 38 51
50 -3 4 7 18 21 29 15 12 23 21 19 21 -4 0 19 21 50 46 31 25 54 48 52 50 -2
2 -24 -7 -48 -20 -25 -13 -57 -22 -71 -20 -16 1 -33 -5 -44 -17 -23 -25 -38
-24 -24 2 7 11 25 25 41 31 16 5 29 14 29 20 0 8 -12 7 -60 -10 -12 -4 -13 -2
-2 9 13 15 16 29 5 29 -5 0 -27 -17 -50 -38 -52 -45 -99 -82 -107 -82 -8 0 5
32 20 50 6 8 17 33 23 56 6 22 20 49 31 59 11 10 20 22 20 27 0 15 -61 -25
-83 -54 -11 -16 -27 -28 -34 -28 -7 0 -22 -9 -33 -20 -12 -12 -25 -18 -31 -15
-5 4 -19 -5 -30 -19 -25 -32 -53 -25 -44 13 11 48 -14 0 -30 -59 -19 -68 -46
-130 -55 -130 -10 0 3 54 24 104 9 21 16 47 16 57 0 30 -20 22 -26 -11 -4 -16
-13 -35 -22 -42 -13 -12 -14 -8 -8 32 4 24 3 41 -1 36 -9 -8 -54 -152 -56
-178 -1 -9 -5 -14 -10 -11 -5 3 -6 19 -3 35 4 20 2 27 -6 22 -18 -11 -1 40 35
104 17 31 39 57 47 57 18 0 26 35 11 45 -9 5 -7 16 5 41 40 79 39 75 21 60
-20 -16 -21 -9 -6 22 9 19 7 19 -13 -4 -13 -14 -31 -28 -39 -31 -8 -3 -25 -27
-38 -52 -14 -25 -30 -51 -38 -57 -7 -6 -13 -16 -13 -21 0 -6 -12 -22 -27 -38
-45 -44 -51 -55 -68 -113 -25 -87 -33 -154 -24 -217 4 -28 -1 -50 -11 -50 -19
0 -38 56 -44 130 -7 72 -5 78 28 148 20 40 31 70 26 67 -15 -9 -12 1 14 53 17
33 22 53 15 63 -6 10 -11 11 -16 3 -5 -6 -20 -10 -36 -8 -21 2 -34 -5 -59 -37
-17 -21 -36 -39 -42 -39 -8 0 -8 2 0 8 6 4 13 17 17 30 5 20 -4 15 -47 -25
-39 -35 -52 -53 -49 -69 3 -12 -1 -24 -10 -27 -8 -3 -24 -31 -37 -64 -26 -66
-40 -86 -40 -58 0 10 7 27 17 37 10 11 12 18 4 18 -13 0 10 52 37 83 9 11 11
17 4 17 -23 0 -12 35 33 105 18 27 18 29 2 16 -15 -12 -20 -12 -27 -1 -6 10
-13 8 -31 -9 -48 -44 -55 -13 -7 36 37 38 30 58 -8 22 l-26 -24 7 24 7 24 -34
-26 c-18 -14 -49 -46 -68 -71 -18 -26 -37 -46 -42 -46 -4 0 -14 -15 -21 -32
-14 -34 -44 -65 -53 -56 -2 3 0 17 6 32 5 15 10 37 10 49 0 12 19 42 41 67 46
51 82 120 70 135 -5 5 -7 17 -6 26 4 25 -40 20 -66 -7 -12 -13 -29 -24 -37
-24 -8 0 -23 -10 -34 -22 -16 -19 -21 -20 -29 -8 -6 10 -11 12 -16 4 -5 -6
-19 -17 -33 -24 -22 -11 -21 -8 9 23 19 20 37 34 41 32 4 -3 10 4 13 15 6 22
-1 24 -55 11 -24 -6 -38 -5 -41 2 -2 6 -12 5 -27 -3 -24 -13 -25 -12 -7 7 9
11 14 23 10 26 -9 10 -23 8 -23 -3z m707 -427 c-3 -10 -5 -2 -5 17 0 19 2 27
5 18 2 -10 2 -26 0 -35z m3 -70 c0 -16 -5 -35 -10 -43 -7 -11 -10 -4 -10 28 0
23 5 42 10 42 6 0 10 -12 10 -27z m590 -47 c11 -2 14 -14 11 -47 -3 -51 -7
-57 -24 -39 -10 10 -9 11 2 5 11 -7 13 -4 6 11 -4 10 -8 29 -8 41 1 13 -3 20
-8 17 -5 -3 -9 -14 -9 -25 0 -14 -4 -18 -12 -13 -10 6 -10 4 -2 -7 6 -8 14
-72 18 -143 3 -70 11 -136 16 -146 6 -12 5 -23 -4 -35 -12 -17 -16 -15 -45 25
-17 24 -36 62 -43 84 -14 50 -12 131 4 170 9 23 9 31 0 34 -15 5 -16 44 -1 59
9 9 17 6 31 -10 11 -12 17 -16 13 -9 -11 22 3 45 23 37 9 -4 24 -8 32 -9z
m-2720 -80 c0 -8 -4 -18 -10 -21 -5 -3 -10 -15 -10 -25 0 -13 -5 -17 -15 -14
-20 8 -19 20 3 49 19 28 32 32 32 11z m2720 -106 c0 -27 -4 -50 -10 -50 -11 0
-14 83 -3 93 12 12 13 8 13 -43z m-2755 20 c-3 -5 -10 -10 -16 -10 -5 0 -9 5
-9 10 0 6 7 10 16 10 8 0 12 -4 9 -10z m2770 -120 c4 -16 10 -30 15 -30 4 0
11 -19 15 -42 7 -44 24 -85 25 -60 0 18 20 4 20 -14 0 -8 -4 -12 -10 -9 -5 3
-10 -2 -10 -12 0 -34 -31 12 -37 55 -3 23 -14 49 -24 58 -11 10 -19 31 -19 51
0 41 16 43 25 3z m-2875 -96 c0 -8 -4 -12 -10 -9 -5 3 -10 10 -10 16 0 5 5 9
10 9 6 0 10 -7 10 -16z m2970 -100 c0 -14 -12 -19 -23 -8 -9 9 4 35 14 28 5
-3 9 -12 9 -20z m-3040 -15 c0 -5 -7 -9 -15 -9 -8 0 -15 7 -15 15 0 9 6 12 15
9 8 -4 15 -10 15 -15z m270 10 c0 -6 18 -36 40 -68 22 -31 40 -61 40 -65 0
-12 -73 53 -87 78 -15 26 -17 66 -3 66 6 0 10 -5 10 -11z m40 -9 c0 -5 -2 -10
-4 -10 -3 0 -8 5 -11 10 -3 6 -1 10 4 10 6 0 11 -4 11 -10z m-283 -80 c6 -16
7 -30 3 -30 -5 0 -15 14 -24 30 -10 22 -11 30 -2 30 6 0 17 -13 23 -30z m-123
-6 c5 -14 4 -15 -9 -4 -17 14 -19 20 -6 20 5 0 12 -7 15 -16z m-84 -224 c0 -5
-4 -10 -10 -10 -5 0 -10 5 -10 10 0 6 5 10 10 10 6 0 10 -4 10 -10z m4039
-259 c11 -7 4 -14 -30 -30 -58 -26 -63 -28 -67 -16 -2 6 -8 16 -14 23 -10 12
-1 17 29 13 6 -1 14 3 18 9 8 12 45 13 64 1z m-279 -69 c0 -19 -36 -46 -50
-37 -17 11 -11 32 13 43 31 15 37 14 37 -6z m474 -87 c-6 -16 -24 -21 -24 -7
0 11 11 22 21 22 5 0 6 -7 3 -15z m-124 -39 c0 -2 -7 -7 -16 -10 -8 -3 -12 -2
-9 4 6 10 25 14 25 6z m-198 -68 c-7 -7 -12 -8 -12 -2 0 14 12 26 19 19 2 -3
-1 -11 -7 -17z m-2749 -63 c-3 -9 -8 -14 -10 -11 -3 3 -2 9 2 15 9 16 15 13 8
-4z m215 -495 c-1 -18 -6 -30 -15 -30 -16 0 -16 2 -1 35 15 32 17 32 16 -5z
m-184 11 c7 -11 -3 -41 -14 -41 -11 0 -21 30 -14 41 3 5 9 9 14 9 5 0 11 -4
14 -9z m530 -198 c-1 -46 -6 -69 -19 -83 -23 -26 -35 -25 -35 1 0 11 4 18 9
15 5 -4 7 4 3 16 -5 21 -4 22 11 9 20 -16 22 -8 6 20 -7 14 -7 24 0 33 7 8 7
24 2 43 -5 16 -6 43 -3 59 5 29 5 29 16 -11 6 -21 11 -68 10 -102z m-164 107
c0 -5 -4 -10 -10 -10 -5 0 -10 5 -10 10 0 6 5 10 10 10 6 0 10 -4 10 -10z
m270 -22 c0 -16 -3 -19 -11 -11 -6 6 -8 16 -5 22 11 17 16 13 16 -11z m-270
-33 c0 -37 -13 -47 -24 -19 -8 20 2 54 15 54 5 0 9 -16 9 -35z m481 -2 c-9
-16 -10 -14 -11 12 0 21 3 26 11 18 8 -8 8 -16 0 -30z m-208 -24 c-11 -11 -5
-59 8 -59 5 0 9 -9 9 -20 0 -42 -35 -4 -42 46 -3 21 20 59 30 49 3 -3 1 -10
-5 -16z m-306 -31 c-3 -8 -6 -5 -6 6 -1 11 2 17 5 13 3 -3 4 -12 1 -19z m530
0 c-3 -8 -6 -5 -6 6 -1 11 2 17 5 13 3 -3 4 -12 1 -19z m-428 -5 c12 10 14 9
8 -6 -4 -10 -7 -23 -7 -28 0 -18 -38 -9 -43 10 -6 24 3 35 17 21 6 -6 15 -5
25 3z m151 -77 c7 -25 9 -53 5 -63 -7 -14 -10 -11 -15 17 -4 19 -11 50 -15 69
-12 51 10 31 25 -23z m287 22 c-3 -8 -6 -5 -6 6 -1 11 2 17 5 13 3 -3 4 -12 1
-19z m-433 -13 c3 -8 -1 -20 -7 -27 -7 -7 -17 -22 -21 -33 -8 -18 -9 -18 -18
8 -8 22 -6 32 8 48 21 23 30 24 38 4z m2406 -42 c0 -7 -4 -13 -10 -13 -5 0
-10 12 -10 28 0 21 2 24 10 12 5 -8 10 -21 10 -27z m-2320 17 c0 -5 -2 -10 -4
-10 -3 0 -8 5 -11 10 -3 6 -1 10 4 10 6 0 11 -4 11 -10z m-60 -4 c0 -3 -4 -8
-10 -11 -5 -3 -10 -1 -10 4 0 6 5 11 10 11 6 0 10 -2 10 -4z m53 -20 c3 3 5
-15 5 -40 0 -25 -4 -48 -9 -52 -5 -3 -9 6 -9 20 0 17 -5 26 -16 26 -11 0 -14
5 -10 16 3 9 6 23 6 31 0 12 3 13 13 4 8 -6 16 -8 20 -5z m257 4 c0 -5 -2 -10
-4 -10 -3 0 -8 5 -11 10 -3 6 -1 10 4 10 6 0 11 -4 11 -10z m-326 -26 c3 -8 2
-12 -4 -9 -6 3 -10 10 -10 16 0 14 7 11 14 -7z m220 -10 c3 -8 2 -12 -4 -9 -6
3 -10 10 -10 16 0 14 7 11 14 -7z m-294 -15 c0 -5 -4 -9 -10 -9 -5 0 -10 7
-10 16 0 8 5 12 10 9 6 -3 10 -10 10 -16z m-40 -5 c0 -8 -4 -12 -10 -9 -5 3
-10 10 -10 16 0 5 5 9 10 9 6 0 10 -7 10 -16z m155 -13 c3 -5 1 -12 -5 -16 -5
-3 -10 1 -10 9 0 18 6 21 15 7z m188 -7 c-3 -8 -11 -13 -18 -10 -7 2 -18 -1
-24 -7 -8 -8 -11 -8 -11 1 0 7 10 17 23 22 32 13 37 12 30 -6z m-343 -30 c0
-8 -4 -14 -10 -14 -5 0 -10 9 -10 21 0 11 5 17 10 14 6 -3 10 -13 10 -21z
m410 -21 c0 -7 -4 -13 -10 -13 -5 0 -10 12 -10 28 0 21 2 24 10 12 5 -8 10
-21 10 -27z m-80 8 c0 -6 -5 -13 -11 -16 -6 -5 -4 -12 8 -21 10 -7 14 -14 9
-14 -5 0 -3 -6 3 -14 9 -11 8 -15 -5 -20 -9 -3 -14 -13 -11 -21 4 -8 -2 -16
-14 -20 -31 -10 -34 1 -9 34 21 30 21 31 1 31 -26 0 -51 10 -51 21 0 5 7 9 15
9 8 0 15 5 15 10 0 6 -6 10 -12 10 -9 0 -8 4 2 10 19 12 60 13 60 1z m-222
-34 c-5 -32 -23 -30 -23 2 0 19 4 27 13 23 7 -2 12 -14 10 -25z m12 -36 c0 -5
3 -23 6 -40 4 -20 3 -31 -5 -31 -6 0 -11 11 -11 24 0 13 -5 26 -12 28 -6 2 -8
10 -4 16 8 14 26 16 26 3z m142 -29 c-6 -2 -8 -10 -5 -18 8 -20 -10 -17 -30 6
-16 19 -15 20 11 34 24 13 27 13 31 -2 2 -9 -1 -18 -7 -20z m-101 -19 c-9 -16
-10 -15 -11 8 0 14 3 29 8 33 12 12 14 -22 3 -41z m239 7 c0 -5 -5 -10 -11
-10 -5 0 -7 5 -4 10 3 6 8 10 11 10 2 0 4 -4 4 -10z m-193 -41 l-15 -21 -11
21 c-9 16 -9 20 2 15 8 -3 18 3 22 13 5 12 9 14 12 6 2 -7 -2 -22 -10 -34z
m168 11 c3 -5 -1 -10 -9 -10 -9 0 -16 5 -16 10 0 6 4 10 9 10 6 0 13 -4 16
-10z m-185 -60 c0 -5 -5 -10 -11 -10 -5 0 -7 5 -4 10 3 6 8 10 11 10 2 0 4 -4
4 -10z m-40 -50 c0 -5 -4 -10 -10 -10 -5 0 -10 5 -10 10 0 6 5 10 10 10 6 0
10 -4 10 -10z"/>
<path d="M7425 9699 c-4 -6 -5 -13 -2 -16 7 -7 27 6 27 18 0 12 -17 12 -25 -2z"/>
<path d="M3667 9600 c5 -35 46 -130 56 -130 5 0 5 14 2 31 -10 47 -34 99 -44
99 -5 0 -11 6 -14 13 -2 6 -2 1 0 -13z"/>
<path d="M2140 9605 c0 -5 5 -17 10 -25 5 -8 10 -10 10 -5 0 6 -5 17 -10 25
-5 8 -10 11 -10 5z"/>
<path d="M6743 9543 c-9 -21 -17 -42 -17 -46 -1 -4 -6 -11 -12 -15 -9 -5 -74
-127 -74 -138 0 -1 9 0 20 3 12 3 23 17 26 32 7 34 30 77 66 122 28 37 36 55
19 45 -5 -4 -7 3 -4 14 9 34 -7 22 -24 -17z"/>
<path d="M8337 9525 c-4 -8 -2 -17 3 -20 6 -4 10 3 10 14 0 25 -6 27 -13 6z"/>
<path d="M4130 9525 c0 -5 5 -17 10 -25 5 -8 10 -10 10 -5 0 6 -5 17 -10 25
-5 8 -10 11 -10 5z"/>
<path d="M8320 9480 c0 -5 5 -10 10 -10 6 0 10 5 10 10 0 6 -4 10 -10 10 -5 0
-10 -4 -10 -10z"/>
<path d="M6565 9389 c-4 -6 -5 -12 -2 -15 2 -3 7 2 10 11 7 17 1 20 -8 4z"/>
<path d="M6510 9281 c-12 -24 -13 -31 -1 -31 5 0 11 11 13 25 6 30 2 32 -12 6z"/>
<path d="M8700 9285 c-7 -9 -8 -15 -2 -15 5 0 12 7 16 15 3 8 4 15 2 15 -2 0
-9 -7 -16 -15z"/>
<path d="M6155 9250 c3 -5 10 -10 16 -10 5 0 9 5 9 10 0 6 -7 10 -16 10 -8 0
-12 -4 -9 -10z"/>
<path d="M8676 9253 c-11 -11 -7 -20 9 -20 8 0 15 4 15 8 0 11 -16 20 -24 12z"/>
<path d="M8787 9253 c-4 -3 -7 -11 -7 -17 0 -6 5 -5 12 2 6 6 9 14 7 17 -3 3
-9 2 -12 -2z"/>
<path d="M4620 9210 c0 -19 3 -21 12 -12 9 9 9 15 0 24 -9 9 -12 7 -12 -12z"/>
<path d="M6415 9220 c-3 -5 -1 -10 4 -10 6 0 11 5 11 10 0 6 -2 10 -4 10 -3 0
-8 -4 -11 -10z"/>
<path d="M6416 9183 c-6 -14 -5 -15 5 -6 7 7 10 15 7 18 -3 3 -9 -2 -12 -12z"/>
<path d="M4602 9090 c0 -14 2 -19 5 -12 2 6 2 18 0 25 -3 6 -5 1 -5 -13z"/>
<path d="M4594 9002 c-6 -4 -11 -14 -11 -22 0 -8 -4 -23 -8 -32 -5 -13 -3 -18
8 -18 10 0 16 13 19 40 2 22 3 40 3 40 0 0 -5 -4 -11 -8z"/>
<path d="M8843 8925 c-3 -9 -3 -18 -1 -21 3 -3 8 4 11 16 6 23 -1 27 -10 5z"/>
<path d="M4591 8885 c0 -16 -4 -41 -6 -55 l-6 -25 11 25 c6 13 9 38 7 55 l-4
30 -2 -30z"/>
<path d="M5450 8890 c0 -5 5 -10 11 -10 5 0 7 5 4 10 -3 6 -8 10 -11 10 -2 0
-4 -4 -4 -10z"/>
<path d="M4721 8874 c0 -11 3 -14 6 -6 3 7 2 16 -1 19 -3 4 -6 -2 -5 -13z"/>
<path d="M1395 8839 c-9 -17 -15 -33 -13 -35 3 -2 12 12 21 31 21 43 13 47 -8
4z"/>
<path d="M5551 8854 c0 -11 3 -14 6 -6 3 7 2 16 -1 19 -3 4 -6 -2 -5 -13z"/>
<path d="M5482 8840 c0 -14 2 -19 5 -12 2 6 2 18 0 25 -3 6 -5 1 -5 -13z"/>
<path d="M4697 8743 c-4 -3 -7 -11 -7 -17 0 -6 5 -5 12 2 6 6 9 14 7 17 -3 3
-9 2 -12 -2z"/>
<path d="M9027 8650 c-4 -14 -6 -36 -6 -50 1 -18 4 -14 10 14 10 44 6 75 -4
36z"/>
<path d="M5411 8512 c-1 -7 -5 -11 -10 -8 -15 10 -2 -76 14 -94 8 -9 18 -32
22 -52 7 -33 10 -35 26 -23 17 12 17 16 4 42 -8 15 -15 41 -15 57 0 15 -4 31
-10 35 -6 4 -15 18 -21 31 -5 14 -10 19 -10 12z"/>
<path d="M9100 8310 c0 -5 5 -10 11 -10 5 0 7 5 4 10 -3 6 -8 10 -11 10 -2 0
-4 -4 -4 -10z"/>
<path d="M5490 8269 c-13 -7 -8 -13 11 -11 3 0 13 -14 23 -33 18 -33 63 -59
52 -29 -4 11 1 10 22 -3 l27 -17 -20 24 c-29 35 -47 48 -61 43 -7 -2 -18 5
-26 16 -10 14 -18 17 -28 10z"/>
<path d="M4690 8246 c-14 -15 -20 -31 -16 -41 7 -19 -17 -58 -29 -47 -5 4 -5
1 0 -7 5 -9 2 -19 -10 -28 -11 -7 -13 -13 -7 -13 7 0 22 15 33 34 11 19 26 37
34 40 8 3 15 10 15 16 0 6 -4 8 -10 5 -14 -9 -12 1 5 35 19 36 16 38 -15 6z"/>
<path d="M4733 8255 c-3 -9 -3 -19 1 -22 3 -4 6 1 6 10 0 8 6 18 13 20 9 4 9
6 -1 6 -7 1 -15 -6 -19 -14z"/>
<path d="M5590 8176 c0 -2 8 -10 18 -17 15 -13 16 -12 3 4 -13 16 -21 21 -21
13z"/>
<path d="M9190 8169 c0 -5 5 -7 10 -4 6 3 10 8 10 11 0 2 -4 4 -10 4 -5 0 -10
-5 -10 -11z"/>
<path d="M9865 8140 c-3 -5 -2 -10 4 -10 5 0 13 5 16 10 3 6 2 10 -4 10 -5 0
-13 -4 -16 -10z"/>
<path d="M955 8130 c-3 -5 -1 -10 4 -10 6 0 11 5 11 10 0 6 -2 10 -4 10 -3 0
-8 -4 -11 -10z"/>
<path d="M9780 8131 c0 -5 9 -7 20 -4 11 3 20 7 20 9 0 2 -9 4 -20 4 -11 0
-20 -4 -20 -9z"/>
<path d="M9675 8120 c3 -5 8 -10 11 -10 2 0 4 5 4 10 0 6 -5 10 -11 10 -5 0
-7 -4 -4 -10z"/>
<path d="M9713 8123 c9 -2 23 -2 30 0 6 3 -1 5 -18 5 -16 0 -22 -2 -12 -5z"/>
<path d="M5602 8094 c10 -10 20 -15 24 -12 3 4 -5 12 -18 18 -22 12 -22 12 -6
-6z"/>
<path d="M5640 8101 c0 -9 30 -24 36 -18 2 1 -6 8 -16 15 -11 7 -20 8 -20 3z"/>
<path d="M4570 8085 c-7 -8 -18 -15 -25 -15 -13 0 -65 -39 -53 -40 9 0 108 60
108 66 0 10 -19 3 -30 -11z"/>
<path d="M5700 8070 c0 -6 -7 -10 -15 -10 -8 0 -15 -4 -15 -10 0 -5 4 -10 9
-10 5 0 18 -3 28 -7 15 -6 16 -5 5 9 -11 14 -10 17 5 20 17 3 17 4 1 10 -10 4
-18 3 -18 -2z"/>
<path d="M4641 8054 c-7 -8 -11 -17 -9 -20 3 -2 13 5 23 16 10 11 14 20 9 20
-5 -1 -15 -8 -23 -16z"/>
<path d="M5790 8020 c0 -6 -11 -8 -27 -4 -22 5 -26 4 -16 -6 13 -15 87 -5 78
11 -8 12 -35 12 -35 -1z"/>
<path d="M5805 7990 c-3 -6 1 -7 9 -4 18 7 21 14 7 14 -6 0 -13 -4 -16 -10z"/>
<path d="M5675 7970 c3 -5 18 -10 33 -9 24 0 25 1 7 9 -28 12 -47 12 -40 0z"/>
<path d="M5768 7953 c7 -3 16 -2 19 1 4 3 -2 6 -13 5 -11 0 -14 -3 -6 -6z"/>
<path d="M6002 7880 c-18 -4 -36 -11 -39 -14 -10 -10 61 5 72 15 5 5 7 9 5 8
-3 -1 -20 -5 -38 -9z"/>
<path d="M5888 7843 c7 -3 16 -2 19 1 4 3 -2 6 -13 5 -11 0 -14 -3 -6 -6z"/>
<path d="M6010 7840 c0 -5 5 -10 10 -10 6 0 10 5 10 10 0 6 -4 10 -10 10 -5 0
-10 -4 -10 -10z"/>
<path d="M6620 7798 c0 -19 2 -20 10 -8 13 19 13 30 0 30 -5 0 -10 -10 -10
-22z"/>
<path d="M3671 7484 c0 -11 3 -14 6 -6 3 7 2 16 -1 19 -3 4 -6 -2 -5 -13z"/>
<path d="M6642 7408 c-7 -7 -12 -20 -12 -30 0 -10 -4 -18 -10 -18 -5 0 -8 -17
-7 -39 1 -21 -4 -45 -10 -53 -10 -12 -10 -19 2 -34 15 -20 15 -20 19 38 1 34
12 44 31 28 13 -10 15 -9 15 9 0 12 -4 19 -10 16 -11 -7 -13 4 -10 50 1 17 7
33 14 37 7 5 7 8 1 8 -6 0 -16 -5 -23 -12z"/>
<path d="M6681 7254 c0 -11 3 -14 6 -6 3 7 2 16 -1 19 -3 4 -6 -2 -5 -13z"/>
<path d="M6810 7180 c0 -5 5 -10 10 -10 6 0 10 5 10 10 0 6 -4 10 -10 10 -5 0
-10 -4 -10 -10z"/>
<path d="M6831 7149 c-1 -9 -8 -19 -16 -23 -8 -3 -15 -15 -15 -26 0 -12 4 -18
10 -15 5 3 15 -5 22 -19 8 -18 15 -23 23 -16 7 5 15 7 18 3 4 -3 7 3 7 14 0
26 -10 35 -26 22 -10 -8 -18 -7 -30 6 -15 15 -15 17 1 29 10 7 15 19 12 27 -4
11 -6 10 -6 -2z"/>
<path d="M6974 6955 c-4 -8 -10 -12 -15 -9 -5 3 -6 -2 -3 -10 5 -12 9 -13 25
-3 20 13 26 37 9 37 -6 0 -13 -7 -16 -15z"/>
<path d="M3470 6930 c0 -5 5 -10 10 -10 6 0 10 5 10 10 0 6 -4 10 -10 10 -5 0
-10 -4 -10 -10z"/>
<path d="M6005 6900 c-3 -5 -4 -19 -2 -32 2 -13 2 -17 0 -10 -3 6 -11 12 -19
12 -8 0 -14 7 -14 15 0 17 -25 21 -35 5 -3 -5 -12 -7 -20 -4 -8 4 -18 -1 -21
-10 -3 -9 -14 -16 -24 -16 -9 0 -25 -9 -34 -19 -10 -11 -28 -22 -42 -25 -23
-6 -24 -9 -22 -91 1 -76 4 -88 28 -117 33 -39 47 -32 81 40 32 65 42 73 98 75
27 1 47 5 44 10 -2 4 3 7 11 7 19 0 21 16 4 23 -7 2 -1 8 15 12 l28 7 -28 47
c-15 25 -26 47 -25 49 1 1 2 9 2 17 0 17 -16 20 -25 5z m40 -110 c3 -5 1 -10
-4 -10 -6 0 -11 5 -11 10 0 6 2 10 4 10 3 0 8 -4 11 -10z m-25 -14 c0 -2 -7
-6 -15 -10 -8 -3 -15 -1 -15 4 0 6 7 10 15 10 8 0 15 -2 15 -4z"/>
<path d="M4250 6860 c0 -6 -6 -10 -14 -7 -15 6 -46 -32 -46 -55 0 -15 -70 -78
-87 -78 -23 0 -2 28 28 39 16 5 29 14 29 18 0 14 -47 7 -75 -11 -14 -9 -35
-18 -46 -19 -11 -1 -19 -9 -19 -20 0 -13 -5 -17 -14 -14 -10 4 -13 1 -9 -9 3
-8 -1 -14 -10 -14 -8 0 -22 -11 -31 -25 -19 -29 -20 -35 -5 -35 18 0 41 -28
28 -36 -6 -3 -15 0 -20 7 -10 17 -23 5 -16 -16 4 -8 16 -15 29 -15 17 0 19 -3
10 -12 -8 -8 -15 -8 -26 1 -8 7 -21 9 -27 5 -8 -5 -9 -3 -4 6 4 7 -6 2 -23
-10 -24 -18 -29 -27 -21 -37 9 -10 6 -13 -16 -13 -24 0 -26 -2 -20 -30 4 -17
2 -36 -4 -43 -6 -8 -6 -18 -1 -27 7 -10 10 -11 10 -2 0 6 5 12 11 12 6 0 9 -9
6 -20 -3 -11 -1 -20 4 -20 4 0 6 -7 3 -15 -4 -8 1 -17 10 -21 9 -3 16 -11 16
-16 0 -15 40 -48 67 -54 18 -5 23 -13 23 -40 0 -26 4 -34 18 -34 10 0 36 -8
58 -19 46 -22 116 -32 135 -20 11 7 11 14 0 44 -7 20 -10 39 -7 42 3 4 6 -1 6
-9 0 -13 9 -15 42 -12 47 4 58 11 39 24 -17 10 -7 40 12 40 7 0 13 10 13 21
-1 19 29 43 79 63 5 2 -3 16 -20 30 -25 22 -37 26 -73 21 -27 -3 -41 -1 -37 5
3 6 17 10 30 10 34 0 42 20 8 21 -16 0 -22 3 -13 6 16 6 30 23 30 36 0 5 -21
8 -47 7 -54 -3 -96 8 -87 21 3 5 -2 9 -11 9 -9 0 -13 -4 -10 -10 3 -5 -3 -10
-14 -10 -32 0 -25 15 14 30 19 8 35 17 35 22 0 11 -14 10 -25 -1 -6 -5 -20 -5
-35 1 l-25 9 25 14 25 14 -32 1 c-26 0 -30 3 -26 20 4 14 11 19 23 15 10 -3
21 -1 25 5 10 16 38 12 31 -5 -7 -20 39 -20 76 -1 37 20 54 4 77 -67 9 -32 21
-58 26 -59 5 0 22 24 37 53 16 29 33 58 40 66 6 7 8 16 5 19 -3 3 1 21 9 39 9
22 10 36 4 40 -6 3 -10 15 -10 26 0 10 -6 19 -14 19 -7 0 -19 7 -26 15 -7 8
-18 14 -24 13 -16 -2 -66 23 -66 34 0 5 -5 6 -11 3 -5 -4 -19 1 -30 11 -13 11
-19 13 -19 4z m-179 -153 c-10 -9 -11 -8 -5 6 3 10 9 15 12 12 3 -3 0 -11 -7
-18z m-11 -26 c0 -12 -62 -41 -74 -33 -6 3 2 10 17 15 15 5 27 13 27 18 0 5 7
9 15 9 8 0 15 -4 15 -9z m-40 -185 c0 -3 -4 -8 -10 -11 -5 -3 -10 -1 -10 4 0
6 5 11 10 11 6 0 10 -2 10 -4z"/>
<path d="M6994 6848 c3 -13 6 -26 6 -30 0 -17 19 -7 25 13 5 14 2 25 -6 30
-23 15 -32 10 -25 -13z"/>
<path d="M4116 6839 c-11 -10 -15 -19 -9 -19 5 0 18 9 28 20 23 26 6 25 -19
-1z"/>
<path d="M3440 6846 c0 -2 7 -9 15 -16 9 -7 15 -8 15 -2 0 5 -7 12 -15 16 -8
3 -15 4 -15 2z"/>
<path d="M7030 6773 c0 -13 5 -23 10 -23 13 0 13 11 0 30 -8 12 -10 11 -10 -7z"/>
<path d="M541 6744 c0 -11 3 -14 6 -6 3 7 2 16 -1 19 -3 4 -6 -2 -5 -13z"/>
<path d="M7094 6656 c-4 -9 -4 -20 0 -23 3 -4 12 -1 18 5 9 9 9 15 0 24 -9 9
-13 7 -18 -6z"/>
<path d="M7160 6614 c0 -8 5 -12 10 -9 6 4 8 11 5 16 -9 14 -15 11 -15 -7z"/>
<path d="M7130 6595 c0 -8 4 -15 10 -15 5 0 7 7 4 15 -4 8 -8 15 -10 15 -2 0
-4 -7 -4 -15z"/>
<path d="M7881 6593 c-1 -6 -10 -14 -20 -18 -10 -3 -21 -16 -23 -28 -5 -27 5
-113 22 -177 15 -61 70 -119 70 -74 0 11 5 14 18 9 9 -4 33 -9 52 -12 19 -2
48 -10 63 -18 20 -10 27 -11 24 -2 -2 7 -44 36 -93 64 -49 29 -95 57 -103 62
-20 13 -6 81 17 81 24 0 42 19 42 46 0 25 -24 49 -40 39 -5 -3 -14 4 -19 17
-6 13 -10 18 -10 11z m-11 -143 c0 -5 -2 -10 -4 -10 -3 0 -8 5 -11 10 -3 6 -1
10 4 10 6 0 11 -4 11 -10z"/>
<path d="M7376 6583 c-11 -11 -6 -23 9 -23 8 0 15 4 15 9 0 13 -16 22 -24 14z"/>
<path d="M7144 6570 c-24 -9 -38 -36 -23 -45 5 -4 12 1 15 9 3 9 12 16 19 16
7 0 15 7 19 15 6 17 1 18 -30 5z"/>
<path d="M7095 6490 c3 -5 10 -10 16 -10 5 0 9 5 9 10 0 6 -7 10 -16 10 -8 0
-12 -4 -9 -10z"/>
<path d="M5842 6460 l-32 -30 30 0 c18 0 33 -6 36 -15 4 -10 13 -13 25 -10 13
4 19 1 19 -9 0 -25 22 -66 37 -66 8 0 13 12 13 34 0 35 21 63 40 51 5 -3 10
-13 10 -21 0 -19 29 -18 52 3 15 13 21 14 31 4 9 -10 8 -15 -7 -27 -23 -16
-15 -30 11 -19 25 11 64 12 69 3 3 -4 14 -8 26 -8 14 0 18 5 14 15 -3 8 -1 15
4 15 6 0 10 5 10 10 0 6 -8 10 -18 10 -10 0 -23 5 -30 12 -24 24 -156 63 -247
72 -57 6 -62 5 -93 -24z"/>
<path d="M5925 6260 c-3 -5 1 -10 9 -10 9 0 16 5 16 10 0 6 -4 10 -9 10 -6 0
-13 -4 -16 -10z"/>
<path d="M7926 6261 c-4 -6 -1 -18 8 -26 27 -27 36 -13 13 20 -10 12 -16 15
-21 6z"/>
<path d="M3761 6184 c0 -11 3 -14 6 -6 3 7 2 16 -1 19 -3 4 -6 -2 -5 -13z"/>
<path d="M7844 6145 c-32 -22 -47 -68 -42 -131 5 -53 3 -57 -34 -96 -39 -42
-51 -89 -26 -105 16 -9 69 -4 84 8 6 5 15 5 19 1 5 -4 5 1 2 10 -3 10 -1 21 6
25 7 5 13 24 14 43 2 56 26 134 48 157 12 12 40 23 68 27 27 4 47 12 45 18 -3
9 -130 58 -152 58 -7 0 -21 -7 -32 -15z"/>
<path d="M3528 6103 c7 -3 16 -2 19 1 4 3 -2 6 -13 5 -11 0 -14 -3 -6 -6z"/>
<path d="M3585 5980 c-3 -5 -1 -10 4 -10 6 0 11 5 11 10 0 6 -2 10 -4 10 -3 0
-8 -4 -11 -10z"/>
<path d="M8302 5855 c-6 -13 -35 -50 -64 -82 -90 -98 -309 -308 -328 -315 -28
-10 -21 -79 9 -90 12 -4 24 -14 27 -23 4 -8 10 -15 16 -15 5 0 7 4 4 9 -3 5 4
9 17 10 89 2 94 4 171 85 41 43 79 75 84 72 11 -7 25 40 17 54 -4 6 -1 10 5
10 6 0 8 5 5 11 -4 6 0 16 8 22 17 14 29 57 16 57 -5 0 -9 7 -9 16 0 8 4 13 9
10 5 -4 12 7 16 24 7 31 20 39 28 18 2 -7 7 -10 11 -7 4 3 2 18 -3 32 -8 19
-6 28 5 37 19 17 18 28 -10 60 l-23 29 -11 -24z m21 -15 c3 -11 2 -22 -2 -24
-4 -3 -8 6 -9 20 -2 29 4 31 11 4z"/>
<path d="M3715 5850 c3 -5 10 -10 16 -10 5 0 9 5 9 10 0 6 -7 10 -16 10 -8 0
-12 -4 -9 -10z"/>
<path d="M3930 5742 c0 -4 9 -13 20 -20 22 -13 27 -3 8 16 -14 14 -28 16 -28
4z"/>
<path d="M4452 5733 c-4 -11 -19 -19 -36 -20 -16 -1 -34 -7 -39 -12 -6 -6 -10
-50 -10 -99 0 -79 3 -95 27 -136 29 -49 43 -60 94 -71 25 -5 32 -3 32 9 0 19
21 21 38 4 10 -10 16 -7 28 10 8 12 32 31 53 41 55 29 141 99 150 124 5 14 4
25 -3 30 -8 6 -8 10 2 14 6 2 12 9 12 14 0 16 -30 10 -70 -16 -24 -15 -41 -21
-45 -14 -4 5 -16 7 -27 4 -32 -11 -68 4 -78 31 -8 21 -13 23 -29 14 -24 -12
-42 -13 -22 -1 16 11 6 32 -13 25 -7 -3 -18 7 -24 21 -6 14 -16 25 -22 25 -6
0 -8 5 -5 10 3 6 4 10 0 10 -3 0 -9 -8 -13 -17z"/>
<path d="M8320 5685 c0 -9 6 -12 15 -9 8 4 12 10 9 15 -8 14 -24 10 -24 -6z"/>
<path d="M5493 5496 c-6 -8 -9 -17 -5 -22 4 -4 -2 -4 -13 0 -34 12 35 -40 105
-78 54 -30 60 -32 37 -11 -15 14 -34 25 -41 25 -19 0 -50 37 -37 44 5 4 39 -5
75 -18 41 -16 68 -21 72 -15 7 13 14 9 -80 52 -86 41 -95 43 -113 23z"/>
<path d="M5763 5405 c-9 -25 2 -27 22 -5 17 18 17 20 1 20 -9 0 -19 -7 -23
-15z"/>
<path d="M5735 5390 c-3 -5 -1 -10 4 -10 6 0 11 5 11 10 0 6 -2 10 -4 10 -3 0
-8 -4 -11 -10z"/>
<path d="M4484 5294 c3 -8 6 -18 6 -20 0 -3 5 -2 10 1 15 9 12 22 -6 29 -12 5
-15 2 -10 -10z"/>
<path d="M5571 5067 c-2 -62 64 -123 141 -131 141 -14 175 -20 195 -32 54 -33
57 -7 6 41 -26 25 -45 34 -64 33 -15 -1 -39 4 -54 12 -23 12 -28 12 -35 0 -7
-12 -12 -12 -28 3 -10 9 -24 17 -30 17 -7 0 -12 5 -12 11 0 5 -4 8 -9 5 -5 -3
-14 0 -20 8 -16 19 -46 13 -45 -8 3 -28 -25 2 -35 38 l-9 31 -1 -28z"/>
<path d="M5797 4719 c-26 -10 -47 -14 -47 -8 0 6 -6 6 -19 -1 -14 -7 -21 -6
-24 3 -4 7 -6 8 -6 1 -2 -22 32 -38 83 -39 28 -1 62 -4 76 -9 23 -6 26 -4 25
18 0 14 -9 32 -20 40 -17 12 -26 11 -68 -5z"/>
<path d="M7130 4675 c-1 -5 -1 -20 0 -32 1 -13 -4 -23 -10 -23 -7 0 -9 8 -5
21 6 17 3 20 -11 17 -10 -2 -23 -13 -29 -25 -10 -19 -12 -20 -22 -5 -9 15 -12
13 -24 -13 -15 -34 -47 -64 -69 -65 -9 0 -34 -9 -55 -21 -42 -22 -105 -33
-105 -19 0 5 6 10 13 13 6 2 9 8 5 12 -14 14 -35 -15 -33 -45 1 -16 -2 -30 -7
-30 -4 0 -8 6 -8 14 0 8 -5 18 -10 21 -6 4 -9 1 -8 -6 2 -8 -20 -13 -77 -15
-44 -2 -88 -4 -97 -4 -10 -1 -18 -7 -18 -15 0 -10 -9 -12 -35 -8 -27 4 -36 2
-41 -12 -8 -19 -83 -57 -97 -48 -4 3 -7 -3 -5 -13 2 -15 -3 -19 -29 -19 -32 0
-36 -4 -34 -35 0 -10 -1 -11 -5 -2 -7 16 -24 16 -24 -1 0 -7 -20 -17 -44 -23
-25 -5 -43 -7 -40 -3 10 17 -28 16 -44 -2 -17 -17 -21 -18 -32 -5 -9 11 -17
13 -30 6 -25 -14 -37 -13 -22 2 19 19 14 31 -9 25 -15 -4 -28 1 -41 16 -13 15
-21 18 -24 10 -8 -18 -35 -16 -62 3 -12 8 -22 11 -22 6 0 -20 22 -72 31 -72 5
0 9 -7 9 -15 0 -8 4 -15 9 -15 5 0 12 -11 15 -25 4 -14 10 -23 15 -21 5 3 11
-4 14 -15 3 -12 10 -18 15 -15 13 8 54 -77 47 -97 -4 -8 -1 -18 6 -22 8 -6 10
0 7 21 -5 34 21 68 45 58 12 -4 14 -1 10 14 -4 16 0 20 19 20 12 0 122 3 243
7 329 11 386 -6 424 -128 11 -34 21 -56 22 -49 1 6 3 15 4 20 2 4 6 17 10 29
4 12 16 25 26 28 11 4 32 17 47 30 19 16 33 21 42 15 8 -5 22 -4 34 2 16 9 88
17 169 19 10 0 17 8 17 19 0 20 10 25 73 36 36 6 38 8 32 38 -4 22 -3 27 4 17
8 -12 12 -12 25 -2 9 8 16 20 16 27 0 8 4 14 9 14 5 0 12 23 16 50 6 40 11 50
26 50 21 0 27 34 9 45 -6 4 -8 16 -4 27 3 11 7 28 9 37 1 11 11 15 29 13 14
-1 26 2 26 8 0 5 -7 10 -15 10 -8 0 -15 4 -15 9 0 10 24 32 31 28 2 -1 -3 4
-11 11 -13 11 -17 10 -29 -7 -17 -26 -33 -27 -30 -3 3 36 -1 44 -21 39 -14 -3
-24 1 -31 15 -6 12 -14 16 -18 11 -3 -6 -13 -13 -21 -16 -12 -4 -11 -6 3 -6 9
-1 17 -8 17 -17 0 -13 -8 -15 -37 -12 -21 3 -47 9 -58 13 -17 8 -18 7 -8 -7
14 -16 8 -28 -14 -28 -10 0 -14 10 -13 28 3 43 1 48 -20 49 -11 1 -22 -7 -27
-20 -6 -18 -9 -14 -14 23 -3 25 -7 41 -9 35z"/>
<path d="M7437 4446 c-4 -10 -1 -13 9 -9 15 6 19 23 5 23 -5 0 -11 -7 -14 -14z"/>
<path d="M6122 4103 c9 -10 18 -27 21 -38 4 -16 5 -15 6 6 1 25 -15 49 -33 49
-5 0 -2 -8 6 -17z"/>
<path d="M6900 3771 c0 -5 5 -13 10 -16 6 -3 10 -2 10 4 0 5 -4 13 -10 16 -5
3 -10 2 -10 -4z"/>
<path d="M6940 3726 c0 -2 8 -10 18 -17 15 -13 16 -12 3 4 -13 16 -21 21 -21
13z"/>
<path d="M1203 3666 c62 -27 123 -62 145 -83 7 -7 20 -13 28 -13 8 0 14 -4 14
-10 0 -5 7 -10 15 -10 23 0 18 28 -7 36 -13 4 -31 16 -40 26 -9 11 -22 17 -27
13 -6 -3 -11 -2 -11 4 0 6 -12 14 -27 17 -16 4 -39 12 -53 19 -14 7 -41 16
-60 19 -27 5 -22 1 23 -18z"/>
<path d="M7019 3646 c14 -15 26 -26 28 -26 9 0 -24 40 -37 45 -8 4 -4 -5 9
-19z"/>
<path d="M8910 3628 c0 -9 5 -20 10 -23 13 -8 13 5 0 25 -8 13 -10 13 -10 -2z"/>
<path d="M9260 3600 c20 -13 33 -13 25 0 -3 6 -14 10 -23 10 -15 0 -15 -2 -2
-10z"/>
<path d="M8840 3591 c0 -5 5 -13 10 -16 6 -3 10 -2 10 4 0 5 -4 13 -10 16 -5
3 -10 2 -10 -4z"/>
<path d="M8806 3567 c3 -10 9 -15 12 -12 3 3 0 11 -7 18 -10 9 -11 8 -5 -6z"/>
<path d="M8765 3550 c3 -5 8 -10 11 -10 2 0 4 5 4 10 0 6 -5 10 -11 10 -5 0
-7 -4 -4 -10z"/>
<path d="M8716 3542 c-2 -4 2 -12 9 -19 10 -10 14 -9 18 2 6 14 -19 30 -27 17z"/>
<path d="M8796 3525 c-3 -8 -1 -15 4 -15 6 0 10 7 10 15 0 8 -2 15 -4 15 -2 0
-6 -7 -10 -15z"/>
<path d="M8680 3510 c0 -5 5 -10 10 -10 6 0 10 5 10 10 0 6 -4 10 -10 10 -5 0
-10 -4 -10 -10z"/>
<path d="M8634 3498 c-4 -5 -1 -14 7 -18 14 -9 29 -4 29 10 0 13 -29 20 -36 8z"/>
<path d="M8710 3475 c-7 -9 -8 -15 -2 -15 5 0 12 7 16 15 3 8 4 15 2 15 -2 0
-9 -7 -16 -15z"/>
<path d="M8596 3473 c-11 -11 -6 -23 9 -23 8 0 15 4 15 9 0 13 -16 22 -24 14z"/>
<path d="M8670 3450 c0 -5 5 -10 10 -10 6 0 10 5 10 10 0 6 -4 10 -10 10 -5 0
-10 -4 -10 -10z"/>
<path d="M8550 3436 c0 -8 7 -16 15 -20 9 -3 15 0 15 8 0 8 -7 16 -15 20 -9 3
-15 0 -15 -8z"/>
<path d="M8636 3434 c-8 -21 -4 -25 14 -14 11 7 12 12 4 20 -8 8 -13 7 -18 -6z"/>
<path d="M8510 3407 c0 -8 7 -18 16 -21 11 -4 14 -1 12 11 -4 21 -28 30 -28
10z"/>
<path d="M8600 3400 c0 -5 -6 -10 -14 -10 -8 0 -21 -8 -28 -19 -7 -10 -17 -19
-23 -19 -5 -1 -12 -9 -14 -18 -2 -11 15 -2 48 26 53 45 57 50 41 50 -5 0 -10
-4 -10 -10z"/>
<path d="M9454 3368 c8 -18 20 -48 27 -66 11 -32 35 -40 33 -11 0 17 -56 108
-66 109 -4 0 -1 -15 6 -32z"/>
<path d="M8472 3368 c6 -18 28 -21 28 -4 0 9 -7 16 -16 16 -9 0 -14 -5 -12
-12z"/>
<path d="M8430 3330 c0 -11 6 -20 14 -20 21 0 31 21 15 31 -22 14 -29 11 -29
-11z"/>
<path d="M8480 3300 c-6 -11 -15 -18 -19 -16 -4 3 -13 -6 -20 -20 -6 -14 -15
-23 -20 -20 -8 6 -21 -15 -21 -34 0 -5 25 15 55 44 30 29 55 55 55 59 0 15
-20 6 -30 -13z"/>
<path d="M8400 3297 c0 -19 16 -31 24 -18 3 5 -1 14 -9 21 -12 10 -15 10 -15
-3z"/>
<path d="M9148 3274 c-11 -10 17 -62 55 -105 21 -23 36 -48 33 -55 -8 -21 -20
-17 -45 16 -12 17 -26 28 -32 25 -5 -4 -9 1 -9 10 0 9 -6 15 -12 14 -33 -4
-40 1 -34 26 6 22 2 27 -24 36 -16 6 -30 15 -30 19 0 11 -54 -7 -95 -31 -16
-10 -51 -23 -77 -29 -26 -7 -53 -18 -59 -26 -6 -8 -21 -14 -33 -14 -12 0 -32
-7 -44 -16 -12 -8 -22 -13 -22 -10 0 14 -134 -55 -215 -109 -123 -83 -153
-108 -364 -311 -145 -139 -177 -169 -241 -223 -30 -25 -64 -54 -75 -64 -11
-10 -28 -23 -37 -28 -25 -14 -23 6 2 24 17 12 80 90 187 233 12 16 36 47 52
69 17 22 49 67 73 100 23 33 51 72 62 87 12 14 31 39 43 55 35 46 85 107 137
167 37 43 46 60 38 68 -9 9 -12 9 -12 -1 0 -13 -45 -61 -57 -61 -3 0 -3 7 1
15 7 18 -3 45 -16 45 -6 0 -7 -16 -3 -40 7 -40 0 -82 -13 -77 -8 2 -52 -40
-52 -51 0 -4 -8 -15 -17 -24 -39 -37 -53 -55 -53 -66 0 -7 -4 -12 -8 -12 -8 0
-72 -85 -72 -95 0 -3 -8 -14 -17 -24 -18 -19 -69 -77 -140 -160 -21 -25 -60
-67 -87 -94 -38 -39 -50 -47 -58 -36 -8 11 -9 10 -4 -4 4 -12 -8 -31 -39 -60
-24 -23 -48 -55 -54 -70 -13 -34 -30 -36 -23 -2 3 17 0 25 -10 25 -10 0 -15
-13 -16 -42 -1 -23 -9 -52 -17 -64 -8 -13 -15 -30 -15 -38 0 -8 -5 -18 -10
-21 -17 -11 -6 82 12 102 16 18 16 19 -1 20 -28 2 -50 -50 -41 -93 6 -24 4
-37 -6 -45 -12 -10 -14 -1 -15 52 l-1 64 -15 -50 c-8 -27 -18 -66 -22 -85 -6
-29 -8 -32 -13 -14 -3 12 -2 28 2 34 11 18 1 40 -17 40 -11 0 -13 -11 -7 -60
6 -53 4 -60 -12 -67 -11 -3 -32 -17 -49 -31 -37 -30 -45 -13 -10 23 14 16 25
32 25 36 0 5 7 9 16 9 11 0 14 5 10 16 -3 9 -6 22 -6 30 0 19 -31 18 -79 -3
-38 -17 -62 -55 -60 -99 0 -16 2 -14 11 6 6 14 12 20 15 14 6 -17 -56 -129
-99 -179 -10 -11 -24 -29 -32 -40 -15 -19 -15 -19 -16 12 0 21 8 40 24 55 28
27 34 61 51 285 8 108 36 171 111 253 35 39 64 74 64 79 0 5 3 18 7 28 6 16 5
17 -11 3 -21 -17 -102 -120 -119 -153 -7 -12 -30 -49 -52 -82 -39 -60 -125
-240 -125 -261 0 -19 -69 -193 -105 -264 -38 -77 -51 -146 -34 -184 14 -31 -3
-144 -32 -211 -9 -22 -27 -74 -39 -115 -39 -137 -55 -185 -61 -190 -7 -5 -15
-31 -23 -70 -9 -42 -86 -269 -127 -376 -21 -55 -39 -106 -39 -113 0 -6 -4 -19
-9 -29 -5 -9 -17 -44 -26 -77 -9 -33 -23 -76 -30 -95 -8 -19 -17 -46 -20 -60
-4 -14 -13 -39 -20 -55 -8 -17 -16 -41 -18 -55 -2 -14 -7 -32 -10 -40 -18 -40
-57 -173 -57 -190 0 -20 17 -20 1990 -20 l1990 0 0 948 c-1 792 -3 950 -15
965 -13 18 -14 17 -18 -5 l-4 -23 -2 23 c0 13 -5 21 -10 18 -4 -3 -16 3 -26
14 -10 11 -13 20 -7 20 6 0 12 -6 14 -12 3 -7 7 -3 10 9 4 16 2 20 -8 16 -10
-3 -14 3 -14 19 0 14 -14 38 -31 56 -17 17 -28 36 -24 42 3 5 2 10 -4 10 -5 0
-24 12 -41 26 -36 31 -50 25 -26 -11 22 -34 10 -53 -16 -26 -10 12 -16 26 -12
32 4 8 -3 9 -23 5 -23 -5 -32 -3 -36 8 -4 10 -13 13 -23 9 -14 -5 -14 -3 -3
15 7 11 16 19 20 16 4 -2 10 0 13 5 11 17 -10 21 -30 6 -27 -20 -37 -18 -31 5
5 20 5 20 -31 -1 -21 -13 -34 -19 -30 -15 9 11 -39 62 -49 52 -4 -4 -3 -10 3
-14 6 -4 14 -17 18 -29 6 -18 4 -20 -14 -16 -11 3 -26 0 -34 -6 -10 -8 -16 -9
-21 -1 -3 5 0 10 8 10 16 0 30 27 21 41 -8 14 -24 11 -24 -6 0 -17 -27 -19
-66 -5 -26 10 -26 11 -8 25 25 18 11 31 -41 38 -36 6 -37 5 -12 -4 15 -6 27
-14 27 -18 0 -5 -12 -6 -27 -3 -30 5 -77 48 -68 62 3 4 -5 6 -16 3 -21 -6 -21
-5 -3 15 13 16 20 18 26 9 6 -9 11 -8 18 5 6 9 18 25 27 34 16 16 16 16 -5 10
-13 -5 -22 -3 -22 3 0 6 7 11 15 11 8 0 15 5 15 10 0 6 11 10 25 10 14 0 25 5
25 11 0 6 -6 9 -14 6 -7 -3 -23 1 -34 9 -13 9 -23 11 -27 4 -3 -5 1 -10 9 -10
9 0 16 -4 16 -10 0 -5 -7 -10 -16 -10 -8 0 -21 -6 -29 -13 -7 -8 -24 -13 -37
-12 -17 1 -24 8 -26 29 -2 18 -8 26 -17 22 -7 -2 -21 4 -31 15 -9 10 -13 19
-8 19 13 1 -36 40 -50 40 -8 0 -8 -2 0 -8 6 -4 15 -21 18 -38 5 -24 3 -33 -8
-37 -12 -5 -16 0 -16 16 -1 19 -2 20 -10 5 -8 -13 -14 -14 -34 -5 l-23 11 23
19 c13 10 24 25 24 33 0 8 6 14 14 14 22 0 29 18 14 33 -14 14 -53 37 -62 37
-15 0 -4 -29 16 -42 20 -13 21 -17 9 -32 -7 -9 -10 -16 -5 -16 4 0 3 -5 -4
-12 -8 -8 -15 -8 -27 2 -13 10 -15 9 -16 -6 0 -11 -3 -14 -6 -6 -2 6 -8 10
-13 7 -5 -3 -7 3 -5 12 1 10 8 17 14 15 6 -1 11 5 11 14 0 11 -6 15 -19 11
-12 -3 -18 1 -17 12 0 9 -5 15 -13 13 -7 -1 -19 3 -27 9 -11 9 -14 9 -14 0 0
-6 7 -14 16 -18 13 -5 13 -7 2 -14 -22 -15 -41 -10 -34 7 4 9 2 22 -4 29 -8 9
-2 14 21 19 21 4 35 2 43 -8 18 -21 46 -28 46 -10 0 8 -4 13 -9 9 -6 -3 -13 1
-18 9 -9 17 -43 24 -60 13 -7 -5 -13 -4 -13 2 0 5 9 13 20 16 11 3 20 11 20
16 0 5 7 9 15 9 8 0 15 5 15 10 0 6 -9 10 -20 10 -11 0 -20 -5 -20 -11 0 -8
-4 -8 -14 1 -16 13 -10 44 7 33 6 -3 7 -1 3 5 -9 15 -36 4 -36 -15 0 -11 -7
-14 -21 -10 -12 3 -22 0 -26 -9 -3 -8 -9 -11 -14 -8 -5 3 -9 -6 -9 -20 0 -21
5 -26 24 -26 28 0 41 -33 20 -51 -11 -9 -15 -8 -20 5 -5 13 -10 14 -20 5 -10
-8 -12 -6 -9 11 5 25 -45 55 -53 32 -3 -10 -8 -8 -18 5 -8 11 -13 13 -14 6 0
-21 -16 -15 -17 6 -1 13 12 26 42 42 43 23 47 44 10 44 -30 0 -19 20 13 23 24
2 34 -1 39 -15 7 -19 22 -33 37 -33 4 0 6 7 2 15 -3 8 -1 15 4 15 6 0 10 -5
10 -11 0 -5 5 -7 10 -4 19 12 11 45 -10 45 -13 0 -20 7 -20 20 0 11 5 20 10
20 6 0 10 -4 10 -10 0 -5 12 -10 28 -9 15 0 21 3 15 6 -10 3 -10 10 -2 24 10
20 5 39 -12 39 -5 0 -9 -7 -9 -16 0 -11 -6 -14 -20 -9 -11 3 -28 2 -37 -4 -10
-6 -12 -11 -5 -11 14 0 16 -19 2 -40 -8 -12 -13 -11 -32 10 -27 28 -33 69 -12
77 7 3 11 9 8 15 -3 5 2 18 12 29 15 17 16 24 6 39 -7 11 -12 43 -12 72 0 48
1 51 16 36 14 -13 21 -14 38 -5 11 7 24 16 28 21 4 6 12 5 21 -3 12 -9 16 -9
20 1 2 7 8 10 12 6 4 -4 2 -14 -5 -23 -7 -8 -8 -15 -2 -15 5 0 15 7 22 15 17
21 41 20 33 -1 -4 -12 -2 -15 8 -12 8 3 13 13 11 22 -3 14 4 17 42 15 56 -3
63 3 40 33 -12 17 -30 25 -58 27 -51 4 -161 4 -201 -1 -26 -3 -30 0 -33 25 -2
19 -9 27 -23 27 -11 0 -22 7 -25 15 -4 8 -13 15 -20 15 -8 0 -17 7 -21 16 -3
8 -11 13 -18 10 -7 -2 -12 2 -11 11 1 16 -37 47 -46 37z m-268 -100 c0 -8 -4
-12 -10 -9 -5 3 -10 10 -10 16 0 5 5 9 10 9 6 0 10 -7 10 -16z m380 -205 c0
-5 -4 -9 -10 -9 -5 0 -10 7 -10 16 0 8 5 12 10 9 6 -3 10 -10 10 -16z m10 -83
c0 -22 -50 -129 -62 -134 -5 -2 -8 -8 -8 -12 0 -5 -11 -26 -25 -46 -14 -20
-25 -45 -25 -54 0 -10 -6 -23 -14 -29 -11 -9 -15 -6 -18 13 -3 14 -1 23 3 20
10 -6 11 2 3 34 -5 18 -9 20 -21 11 -10 -9 -17 -9 -25 -1 -9 9 -7 12 10 12 12
0 24 -1 26 -2 3 -2 16 8 29 20 29 28 42 79 28 115 -8 19 -6 28 5 38 8 7 12 20
9 30 -9 28 29 25 43 -3 10 -21 11 -21 12 12 1 33 1 34 15 16 8 -11 15 -29 15
-40z m-150 -22 c0 -2 -9 -4 -21 -4 -11 0 -18 4 -14 10 5 8 35 3 35 -6z m-115
-24 c3 -5 1 -10 -4 -10 -6 0 -11 5 -11 10 0 6 2 10 4 10 3 0 8 -4 11 -10z m41
-48 c-22 -5 -30 3 -21 18 5 8 11 7 22 -2 15 -12 14 -13 -1 -16z m64 18 c12 -8
11 -10 -7 -10 -13 0 -23 5 -23 10 0 13 11 13 30 0z m-125 -10 c3 -5 1 -10 -4
-10 -6 0 -11 5 -11 10 0 6 2 10 4 10 3 0 8 -4 11 -10z m112 -16 c-3 -3 -12 -4
-19 -1 -8 3 -5 6 6 6 11 1 17 -2 13 -5z m203 -13 c0 -13 -28 -22 -35 -11 -3 4
1 11 7 13 20 8 28 8 28 -2z m-304 -22 c3 -5 1 -16 -4 -26 -9 -14 -11 -14 -21
6 -7 12 -16 19 -21 16 -5 -3 -11 -1 -14 4 -4 5 7 9 24 9 17 -1 33 -5 36 -9z
m50 -22 c10 4 12 0 8 -11 -3 -9 -10 -14 -14 -11 -5 3 -13 -2 -18 -11 -6 -12
-9 -8 -9 16 0 19 4 27 10 21 5 -5 16 -7 23 -4z m-120 -24 c-10 -10 -19 5 -10
18 6 11 8 11 12 0 2 -7 1 -15 -2 -18z m-35 -46 c-8 -8 -11 -3 -11 19 1 25 2
27 11 11 8 -14 8 -22 0 -30z m124 -27 c3 -5 1 -10 -4 -10 -6 0 -11 5 -11 10 0
6 2 10 4 10 3 0 8 -4 11 -10z m-181 -11 c-4 -7 4 -20 17 -30 14 -10 18 -17 9
-16 -22 4 -39 16 -50 38 -9 16 -7 19 10 19 13 0 19 -4 14 -11z m-174 -23 c0
-3 -4 -8 -10 -11 -5 -3 -10 -1 -10 4 0 6 5 11 10 11 6 0 10 -2 10 -4z m110 0
c0 -3 -4 -8 -10 -11 -5 -3 -10 -1 -10 4 0 6 5 11 10 11 6 0 10 -2 10 -4z m491
-26 c5 0 19 -9 31 -20 12 -11 17 -20 12 -20 -6 0 -15 5 -21 11 -8 8 -13 8 -17
0 -4 -6 -2 -11 3 -11 6 0 11 -5 11 -11 0 -5 -4 -8 -9 -4 -12 7 -25 -31 -16
-45 3 -5 -1 -10 -9 -10 -9 0 -16 5 -16 10 0 6 -7 10 -15 10 -11 0 -14 7 -9 25
3 14 7 37 7 52 2 33 18 48 30 28 4 -8 12 -15 18 -15z m-61 0 c0 -5 -4 -10 -10
-10 -5 0 -10 5 -10 10 0 6 5 10 10 10 6 0 10 -4 10 -10z m-505 -48 c-11 -11
-27 17 -20 35 6 16 8 16 16 -6 5 -13 7 -26 4 -29z m-45 28 c0 -5 -5 -10 -11
-10 -5 0 -7 5 -4 10 3 6 8 10 11 10 2 0 4 -4 4 -10z m440 -10 c13 -8 13 -10
-2 -10 -9 0 -20 5 -23 10 -8 13 5 13 25 0z m313 -27 c4 -7 15 -13 22 -13 8 0
15 -4 15 -10 0 -14 -7 -13 -35 6 -13 8 -31 14 -41 12 -11 -2 -20 4 -22 15 -3
15 1 17 25 11 15 -4 32 -13 36 -21z m-811 -8 c0 -5 -5 -11 -11 -13 -6 -2 -11
4 -11 13 0 9 5 15 11 13 6 -2 11 -8 11 -13z m598 -6 c0 -11 -4 -17 -10 -14 -5
3 -10 13 -10 21 0 8 5 14 10 14 6 0 10 -9 10 -21z m-106 -5 c6 -17 -9 -44 -25
-44 -5 0 -8 14 -7 30 2 32 22 40 32 14z m284 -28 c-7 -7 -19 -11 -25 -9 -18 7
-5 23 18 23 16 0 18 -2 7 -14z m53 -6 c10 -6 19 -17 19 -25 0 -8 5 -15 10 -15
6 0 10 4 10 8 0 5 7 9 15 9 8 0 15 -4 15 -9 0 -4 -7 -8 -15 -8 -8 0 -15 -4
-15 -10 0 -5 7 -10 16 -10 18 0 14 -22 -6 -28 -7 -3 -10 0 -6 6 3 5 -9 19 -28
30 -18 11 -36 29 -39 41 -6 24 -3 25 24 11z m-228 -14 c4 -9 0 -12 -12 -9 -25
6 -41 -17 -30 -44 8 -23 29 -32 29 -13 0 6 -5 10 -12 10 -8 0 -9 3 -2 10 7 7
24 5 54 -8 l44 -18 -24 -17 c-31 -21 -54 -22 -75 -1 -9 9 -19 13 -23 9 -4 -4
-1 -10 6 -12 17 -6 15 -23 -2 -23 -8 0 -18 -9 -21 -20 -10 -31 -21 -24 -23 17
-2 21 -5 39 -7 41 -2 3 4 17 14 31 10 14 21 34 24 44 8 20 52 23 60 3z m100
-5 c12 -2 8 -38 -7 -50 -11 -10 -16 -8 -21 9 -3 11 -11 18 -16 15 -5 -4 -9 -4
-9 -1 0 2 -3 11 -6 20 -4 11 1 14 23 11 15 -2 31 -4 36 -4z m232 -31 c-3 -5
-11 -10 -16 -10 -6 0 -7 5 -4 10 3 6 11 10 16 10 6 0 7 -4 4 -10z m-485 -15
c0 -8 -9 -15 -20 -15 -11 0 -20 7 -20 15 0 8 9 15 20 15 11 0 20 -7 20 -15z
m-1285 -15 c-3 -5 -12 -10 -18 -10 -7 0 -6 4 3 10 19 12 23 12 15 0z m1238
-49 c6 -29 -1 -51 -15 -51 -5 0 -6 9 -3 20 4 11 0 33 -8 49 -14 28 -14 29 3
19 10 -7 21 -23 23 -37z m357 41 c0 -5 13 -7 29 -4 16 2 31 0 34 -5 3 -5 -6
-10 -21 -11 -14 -1 -28 -6 -31 -10 -3 -5 -14 -11 -23 -15 -19 -7 -23 8 -12 37
6 17 24 22 24 8z m390 -6 c0 -9 -39 -13 -51 -5 -10 6 -4 9 19 9 17 0 32 -2 32
-4z m-2020 -13 c0 -5 -12 -16 -25 -26 -21 -15 -25 -15 -25 -3 0 8 8 20 18 25
21 12 32 14 32 4z m930 -14 c0 -6 -4 -7 -10 -4 -5 3 -10 11 -10 16 0 6 5 7 10
4 6 -3 10 -11 10 -16z m1048 -3 c14 5 14 3 -2 -10 -22 -18 -38 -12 -29 11 4
10 8 12 10 6 3 -7 12 -10 21 -7z m-109 -17 c-14 -8 -29 -3 -29 11 0 4 9 6 21
3 15 -4 17 -8 8 -14z m-397 -9 c16 -25 38 -26 39 -2 0 12 2 13 6 3 3 -7 -6
-24 -21 -38 -24 -22 -26 -22 -26 -4 0 10 -7 21 -15 25 -17 6 -21 36 -5 36 5 0
15 -9 22 -20z m-1543 -16 c-15 -18 -22 -13 -13 10 3 9 10 13 16 10 5 -3 4 -12
-3 -20z m581 22 c0 -3 -4 -8 -10 -11 -5 -3 -10 -1 -10 4 0 6 5 11 10 11 6 0
10 -2 10 -4z m-60 -26 c0 -5 -2 -10 -4 -10 -3 0 -8 5 -11 10 -3 6 -1 10 4 10
6 0 11 -4 11 -10z m1430 0 c0 -5 -4 -10 -9 -10 -6 0 -13 5 -16 10 -3 6 1 10 9
10 9 0 16 -4 16 -10z m-85 -30 c3 -6 -1 -10 -9 -10 -9 0 -16 5 -16 10 0 6 -7
10 -16 10 -8 0 -12 5 -9 10 7 11 39 -2 50 -20z m-461 5 c3 -8 1 -15 -4 -15 -6
0 -10 7 -10 15 0 8 2 15 4 15 2 0 6 -7 10 -15z m76 -21 c0 -14 -3 -23 -8 -20
-4 2 -6 -14 -3 -36 3 -35 1 -40 -13 -35 -14 6 -16 3 -11 -14 6 -18 4 -20 -17
-13 -12 4 -38 8 -57 9 -19 0 -36 6 -38 13 -3 6 2 12 10 12 9 0 18 -6 21 -12 7
-14 0 18 -10 52 -5 16 -2 20 15 20 12 0 21 -6 21 -15 0 -8 9 -15 20 -15 21 0
27 15 10 25 -12 8 29 55 48 55 6 0 12 -12 12 -26z m40 16 c0 -5 -4 -10 -10
-10 -5 0 -10 5 -10 10 0 6 5 10 10 10 6 0 10 -4 10 -10z m100 -35 c0 -8 -7
-15 -15 -15 -8 0 -15 7 -15 15 0 8 7 15 15 15 8 0 15 -7 15 -15z m497 0 c0 -8
-4 -12 -9 -9 -5 3 -6 10 -3 15 9 13 12 11 12 -6z m-167 -15 c0 -11 -2 -20 -4
-20 -2 0 -6 9 -9 20 -3 11 -1 20 4 20 5 0 9 -9 9 -20z m-660 0 c0 -5 -2 -10
-4 -10 -3 0 -8 5 -11 10 -3 6 -1 10 4 10 6 0 11 -4 11 -10z m285 -1 c4 -6 4
-13 0 -17 -3 -3 -10 0 -14 7 -6 9 -18 11 -35 7 -15 -4 -26 -2 -26 4 0 13 67
13 75 -1z m305 -15 c0 -8 -4 -12 -10 -9 -5 3 -10 10 -10 16 0 5 5 9 10 9 6 0
10 -7 10 -16z m40 -24 c0 -5 -4 -10 -9 -10 -6 0 -13 5 -16 10 -3 6 1 10 9 10
9 0 16 -4 16 -10z m-657 -11 c-6 -6 -9 -18 -6 -25 3 -8 0 -14 -6 -14 -6 0 -11
4 -11 10 0 5 -8 7 -17 4 -10 -2 -8 1 5 7 12 7 22 16 22 21 0 4 5 8 12 8 9 0 9
-3 1 -11z m-1543 -19 c0 -5 -5 -10 -11 -10 -5 0 -7 5 -4 10 3 6 8 10 11 10 2
0 4 -4 4 -10z m1986 -16 c-5 -14 -9 -15 -19 -5 -9 9 -9 14 3 21 18 11 24 6 16
-16z m269 8 c-3 -3 -11 0 -18 7 -9 10 -8 11 6 5 10 -3 15 -9 12 -12z m325 -12
c0 -19 -28 -10 -33 10 -4 17 -2 18 14 9 10 -5 19 -14 19 -19z m134 -6 c3 -8 2
-12 -4 -9 -6 3 -10 10 -10 16 0 14 7 11 14 -7z m-1190 -15 c-3 -5 -10 -7 -15
-3 -5 3 -7 10 -3 15 3 5 10 7 15 3 5 -3 7 -10 3 -15z m306 -24 c0 -8 -4 -15
-10 -15 -5 0 -10 7 -10 15 0 8 5 15 10 15 6 0 10 -7 10 -15z m960 5 c0 -5 -7
-7 -15 -4 -8 4 -15 8 -15 10 0 2 7 4 15 4 8 0 15 -4 15 -10z m-1120 -4 c0 -9
-30 -14 -35 -6 -4 6 3 10 14 10 12 0 21 -2 21 -4z m1273 -10 c4 -10 1 -13 -8
-9 -8 3 -12 9 -9 14 7 12 11 11 17 -5z m-503 -48 c0 -19 -2 -20 -10 -8 -13 19
-13 30 0 30 6 0 10 -10 10 -22z m-815 3 c7 -12 -12 -24 -25 -16 -11 7 -4 25
10 25 5 0 11 -4 15 -9z m35 -1 c0 -5 -4 -10 -10 -10 -5 0 -10 5 -10 10 0 6 5
10 10 10 6 0 10 -4 10 -10z m-100 -39 c0 -9 5 -22 11 -28 6 -6 9 -23 7 -39 -2
-25 -8 -29 -35 -32 -32 -3 -34 -6 -37 -54 -2 -25 -15 -33 -22 -14 -4 10 -2 22
5 29 6 6 11 19 11 28 0 10 12 27 28 38 21 16 23 20 10 21 -22 0 -24 16 -3 24
11 4 14 13 9 32 -5 19 -4 25 5 20 6 -4 11 -15 11 -25z m300 -31 c0 -5 -4 -10
-10 -10 -5 0 -10 5 -10 10 0 6 5 10 10 10 6 0 10 -4 10 -10z m-313 -98 c8 -5
9 -12 2 -22 -8 -13 -10 -13 -19 0 -18 27 -9 39 17 22z m-10 -78 c-3 -3 -12 -4
-19 -1 -8 3 -5 6 6 6 11 1 17 -2 13 -5z m-52 -34 c-3 -5 -11 -10 -16 -10 -6 0
-7 5 -4 10 3 6 11 10 16 10 6 0 7 -4 4 -10z m-1192 -125 c-3 -9 -8 -14 -10
-11 -3 3 -2 9 2 15 9 16 15 13 8 -4z m-253 -75 c0 -5 -4 -10 -10 -10 -5 0 -10
5 -10 10 0 6 5 10 10 10 6 0 10 -4 10 -10z"/>
<path d="M9040 2160 c0 -5 4 -10 9 -10 6 0 13 5 16 10 3 6 -1 10 -9 10 -9 0
-16 -4 -16 -10z"/>
<path d="M8360 3250 c0 -13 5 -20 13 -17 6 2 12 10 12 17 0 7 -6 15 -12 18 -8
2 -13 -5 -13 -18z"/>
<path d="M7246 3227 c3 -10 9 -15 12 -12 3 3 0 11 -7 18 -10 9 -11 8 -5 -6z"/>
<path d="M8330 3216 c0 -9 5 -16 10 -16 6 0 10 4 10 9 0 6 -4 13 -10 16 -5 3
-10 -1 -10 -9z"/>
<path d="M8260 3136 c0 -8 5 -18 10 -21 6 -3 10 3 10 14 0 12 -4 21 -10 21 -5
0 -10 -6 -10 -14z"/>
<path d="M9200 3140 c0 -5 5 -10 11 -10 5 0 7 5 4 10 -3 6 -8 10 -11 10 -2 0
-4 -4 -4 -10z"/>
<path d="M8227 3106 c-4 -9 -4 -23 0 -33 5 -14 8 -12 15 7 5 13 5 27 0 32 -6
6 -12 3 -15 -6z"/>
<path d="M8201 3054 c0 -11 3 -14 6 -6 3 7 2 16 -1 19 -3 4 -6 -2 -5 -13z"/>
<path d="M8166 3033 c-9 -10 -7 -43 3 -43 11 0 21 39 11 45 -4 2 -10 2 -14 -2z"/>
<path d="M8130 2970 c0 -5 5 -10 10 -10 6 0 10 5 10 10 0 6 -4 10 -10 10 -5 0
-10 -4 -10 -10z"/>
<path d="M8100 2935 c0 -8 5 -15 10 -15 6 0 10 7 10 15 0 8 -4 15 -10 15 -5 0
-10 -7 -10 -15z"/>
<path d="M8081 2894 c0 -11 3 -14 6 -6 3 7 2 16 -1 19 -3 4 -6 -2 -5 -13z"/>
<path d="M9370 2894 c0 -8 -4 -12 -10 -9 -5 3 -10 -3 -10 -14 0 -14 5 -19 15
-15 13 6 22 54 10 54 -3 0 -5 -7 -5 -16z"/>
<path d="M9500 2885 c0 -8 5 -15 10 -15 6 0 10 7 10 15 0 8 -4 15 -10 15 -5 0
-10 -7 -10 -15z"/>
<path d="M8051 2853 c0 -25 1 -26 9 -8 12 27 12 35 0 35 -5 0 -10 -12 -9 -27z"/>
<path d="M9390 2860 c0 -5 5 -10 11 -10 5 0 7 5 4 10 -3 6 -8 10 -11 10 -2 0
-4 -4 -4 -10z"/>
<path d="M9425 2860 c-3 -5 1 -10 9 -10 8 0 18 5 21 10 3 6 -1 10 -9 10 -8 0
-18 -4 -21 -10z"/>
<path d="M8021 2824 c0 -11 3 -14 6 -6 3 7 2 16 -1 19 -3 4 -6 -2 -5 -13z"/>
<path d="M7990 2780 c0 -11 5 -20 10 -20 6 0 10 9 10 20 0 11 -4 20 -10 20 -5
0 -10 -9 -10 -20z"/>
<path d="M9549 2763 c10 -19 11 -25 11 -48 0 -9 9 -15 21 -15 20 0 21 1 5 25
-9 13 -16 31 -16 40 0 8 -7 15 -15 15 -12 0 -13 -4 -6 -17z"/>
<path d="M7930 2714 c0 -8 5 -12 10 -9 6 3 10 10 10 16 0 5 -4 9 -10 9 -5 0
-10 -7 -10 -16z"/>
<path d="M7881 2654 c0 -11 3 -14 6 -6 3 7 2 16 -1 19 -3 4 -6 -2 -5 -13z"/>
<path d="M9490 2634 c-23 -12 -23 -14 -4 -14 11 0 25 -5 32 -12 9 -9 12 -9 12
0 0 7 -5 12 -12 12 -6 0 -3 7 8 15 25 19 -1 19 -36 -1z"/>
<path d="M9581 2641 c-7 -5 -11 -13 -7 -19 7 -13 67 -10 64 3 -1 6 -9 9 -17 7
-7 -2 -17 1 -20 7 -4 6 -12 6 -20 2z"/>
<path d="M9670 2606 c0 -19 -25 -27 -40 -13 -9 9 -11 8 -8 -8 2 -13 10 -19 23
-17 11 2 28 3 38 3 18 0 21 8 11 33 -8 20 -24 21 -24 2z"/>
<path d="M9730 2550 c0 -5 7 -10 16 -10 8 0 12 5 9 10 -3 6 -10 10 -16 10 -5
0 -9 -4 -9 -10z"/>
<path d="M9715 2460 c9 -16 22 -30 31 -30 13 0 11 6 -6 30 -12 17 -26 30 -31
30 -5 0 -3 -13 6 -30z"/>
<path d="M9890 2395 c0 -8 5 -15 10 -15 6 0 10 7 10 15 0 8 -4 15 -10 15 -5 0
-10 -7 -10 -15z"/>
<path d="M9845 2380 c-3 -5 1 -10 9 -10 9 0 16 5 16 10 0 6 -4 10 -9 10 -6 0
-13 -4 -16 -10z"/>
<path d="M9920 2379 c0 -5 5 -7 10 -4 6 3 10 8 10 11 0 2 -4 4 -10 4 -5 0 -10
-5 -10 -11z"/>
<path d="M9853 2330 c3 -11 1 -20 -4 -20 -5 0 -9 8 -9 17 0 14 -2 15 -12 4
-25 -25 43 -50 70 -26 2 2 -3 12 -10 24 -17 27 -42 28 -35 1z"/>
<path d="M7485 2309 c-11 -17 1 -21 15 -4 8 9 8 15 2 15 -6 0 -14 -5 -17 -11z"/>
<path d="M9790 2295 c0 -9 5 -15 11 -13 6 2 11 8 11 13 0 5 -5 11 -11 13 -6 2
-11 -4 -11 -13z"/>
<path d="M10034 2254 c3 -9 6 -17 6 -18 0 -1 14 -1 30 2 18 3 30 0 30 -7 0 -6
5 -11 12 -11 6 0 8 3 5 7 -4 3 -2 12 4 19 9 11 7 15 -6 20 -10 4 -21 1 -26 -7
-6 -10 -9 -10 -9 -1 0 6 -12 12 -26 12 -20 0 -25 -4 -20 -16z"/>
<path d="M10202 2248 c-7 -7 -12 -16 -12 -21 0 -5 7 -1 16 8 9 9 14 18 12 20
-2 3 -10 -1 -16 -7z"/>
<path d="M10190 2184 c0 -8 5 -12 10 -9 6 3 10 10 10 16 0 5 -4 9 -10 9 -5 0
-10 -7 -10 -16z"/>
<path d="M10256 2182 c-3 -5 1 -9 9 -9 8 0 12 4 9 9 -3 4 -7 8 -9 8 -2 0 -6
-4 -9 -8z"/>
</g>
</svg>
